G75*
G70*
%OFA0B0*%
%FSLAX24Y24*%
%IPPOS*%
%LPD*%
%AMOC8*
5,1,8,0,0,1.08239X$1,22.5*
%
%ADD10C,0.0000*%
D10*
X001047Y000260D02*
X030969Y000260D01*
X031023Y000262D01*
X031076Y000267D01*
X031129Y000276D01*
X031181Y000289D01*
X031233Y000305D01*
X031283Y000325D01*
X031331Y000348D01*
X031378Y000375D01*
X031423Y000404D01*
X031466Y000437D01*
X031506Y000472D01*
X031544Y000510D01*
X031579Y000550D01*
X031612Y000593D01*
X031641Y000638D01*
X031668Y000685D01*
X031691Y000733D01*
X031711Y000783D01*
X031727Y000835D01*
X031740Y000887D01*
X031749Y000940D01*
X031754Y000993D01*
X031756Y001047D01*
X031756Y021126D01*
X031754Y021180D01*
X031749Y021233D01*
X031740Y021286D01*
X031727Y021338D01*
X031711Y021390D01*
X031691Y021440D01*
X031668Y021488D01*
X031641Y021535D01*
X031612Y021580D01*
X031579Y021623D01*
X031544Y021663D01*
X031506Y021701D01*
X031466Y021736D01*
X031423Y021769D01*
X031378Y021798D01*
X031331Y021825D01*
X031283Y021848D01*
X031233Y021868D01*
X031181Y021884D01*
X031129Y021897D01*
X031076Y021906D01*
X031023Y021911D01*
X030969Y021913D01*
X030969Y021914D02*
X001047Y021914D01*
X001047Y021913D02*
X000993Y021911D01*
X000940Y021906D01*
X000887Y021897D01*
X000835Y021884D01*
X000783Y021868D01*
X000733Y021848D01*
X000685Y021825D01*
X000638Y021798D01*
X000593Y021769D01*
X000550Y021736D01*
X000510Y021701D01*
X000472Y021663D01*
X000437Y021623D01*
X000404Y021580D01*
X000375Y021535D01*
X000348Y021488D01*
X000325Y021440D01*
X000305Y021390D01*
X000289Y021338D01*
X000276Y021286D01*
X000267Y021233D01*
X000262Y021180D01*
X000260Y021126D01*
X000260Y001047D01*
X000262Y000993D01*
X000267Y000940D01*
X000276Y000887D01*
X000289Y000835D01*
X000305Y000783D01*
X000325Y000733D01*
X000348Y000685D01*
X000375Y000638D01*
X000404Y000593D01*
X000437Y000550D01*
X000472Y000510D01*
X000510Y000472D01*
X000550Y000437D01*
X000593Y000404D01*
X000638Y000375D01*
X000685Y000348D01*
X000733Y000325D01*
X000783Y000305D01*
X000835Y000289D01*
X000887Y000276D01*
X000940Y000267D01*
X000993Y000262D01*
X001047Y000260D01*
X000630Y001260D02*
X000632Y001310D01*
X000638Y001360D01*
X000648Y001409D01*
X000662Y001457D01*
X000679Y001504D01*
X000700Y001549D01*
X000725Y001593D01*
X000753Y001634D01*
X000785Y001673D01*
X000819Y001710D01*
X000856Y001744D01*
X000896Y001774D01*
X000938Y001801D01*
X000982Y001825D01*
X001028Y001846D01*
X001075Y001862D01*
X001123Y001875D01*
X001173Y001884D01*
X001222Y001889D01*
X001273Y001890D01*
X001323Y001887D01*
X001372Y001880D01*
X001421Y001869D01*
X001469Y001854D01*
X001515Y001836D01*
X001560Y001814D01*
X001603Y001788D01*
X001644Y001759D01*
X001683Y001727D01*
X001719Y001692D01*
X001751Y001654D01*
X001781Y001614D01*
X001808Y001571D01*
X001831Y001527D01*
X001850Y001481D01*
X001866Y001433D01*
X001878Y001384D01*
X001886Y001335D01*
X001890Y001285D01*
X001890Y001235D01*
X001886Y001185D01*
X001878Y001136D01*
X001866Y001087D01*
X001850Y001039D01*
X001831Y000993D01*
X001808Y000949D01*
X001781Y000906D01*
X001751Y000866D01*
X001719Y000828D01*
X001683Y000793D01*
X001644Y000761D01*
X001603Y000732D01*
X001560Y000706D01*
X001515Y000684D01*
X001469Y000666D01*
X001421Y000651D01*
X001372Y000640D01*
X001323Y000633D01*
X001273Y000630D01*
X001222Y000631D01*
X001173Y000636D01*
X001123Y000645D01*
X001075Y000658D01*
X001028Y000674D01*
X000982Y000695D01*
X000938Y000719D01*
X000896Y000746D01*
X000856Y000776D01*
X000819Y000810D01*
X000785Y000847D01*
X000753Y000886D01*
X000725Y000927D01*
X000700Y000971D01*
X000679Y001016D01*
X000662Y001063D01*
X000648Y001111D01*
X000638Y001160D01*
X000632Y001210D01*
X000630Y001260D01*
X000630Y020914D02*
X000632Y020964D01*
X000638Y021014D01*
X000648Y021063D01*
X000662Y021111D01*
X000679Y021158D01*
X000700Y021203D01*
X000725Y021247D01*
X000753Y021288D01*
X000785Y021327D01*
X000819Y021364D01*
X000856Y021398D01*
X000896Y021428D01*
X000938Y021455D01*
X000982Y021479D01*
X001028Y021500D01*
X001075Y021516D01*
X001123Y021529D01*
X001173Y021538D01*
X001222Y021543D01*
X001273Y021544D01*
X001323Y021541D01*
X001372Y021534D01*
X001421Y021523D01*
X001469Y021508D01*
X001515Y021490D01*
X001560Y021468D01*
X001603Y021442D01*
X001644Y021413D01*
X001683Y021381D01*
X001719Y021346D01*
X001751Y021308D01*
X001781Y021268D01*
X001808Y021225D01*
X001831Y021181D01*
X001850Y021135D01*
X001866Y021087D01*
X001878Y021038D01*
X001886Y020989D01*
X001890Y020939D01*
X001890Y020889D01*
X001886Y020839D01*
X001878Y020790D01*
X001866Y020741D01*
X001850Y020693D01*
X001831Y020647D01*
X001808Y020603D01*
X001781Y020560D01*
X001751Y020520D01*
X001719Y020482D01*
X001683Y020447D01*
X001644Y020415D01*
X001603Y020386D01*
X001560Y020360D01*
X001515Y020338D01*
X001469Y020320D01*
X001421Y020305D01*
X001372Y020294D01*
X001323Y020287D01*
X001273Y020284D01*
X001222Y020285D01*
X001173Y020290D01*
X001123Y020299D01*
X001075Y020312D01*
X001028Y020328D01*
X000982Y020349D01*
X000938Y020373D01*
X000896Y020400D01*
X000856Y020430D01*
X000819Y020464D01*
X000785Y020501D01*
X000753Y020540D01*
X000725Y020581D01*
X000700Y020625D01*
X000679Y020670D01*
X000662Y020717D01*
X000648Y020765D01*
X000638Y020814D01*
X000632Y020864D01*
X000630Y020914D01*
X030126Y020914D02*
X030128Y020964D01*
X030134Y021014D01*
X030144Y021063D01*
X030158Y021111D01*
X030175Y021158D01*
X030196Y021203D01*
X030221Y021247D01*
X030249Y021288D01*
X030281Y021327D01*
X030315Y021364D01*
X030352Y021398D01*
X030392Y021428D01*
X030434Y021455D01*
X030478Y021479D01*
X030524Y021500D01*
X030571Y021516D01*
X030619Y021529D01*
X030669Y021538D01*
X030718Y021543D01*
X030769Y021544D01*
X030819Y021541D01*
X030868Y021534D01*
X030917Y021523D01*
X030965Y021508D01*
X031011Y021490D01*
X031056Y021468D01*
X031099Y021442D01*
X031140Y021413D01*
X031179Y021381D01*
X031215Y021346D01*
X031247Y021308D01*
X031277Y021268D01*
X031304Y021225D01*
X031327Y021181D01*
X031346Y021135D01*
X031362Y021087D01*
X031374Y021038D01*
X031382Y020989D01*
X031386Y020939D01*
X031386Y020889D01*
X031382Y020839D01*
X031374Y020790D01*
X031362Y020741D01*
X031346Y020693D01*
X031327Y020647D01*
X031304Y020603D01*
X031277Y020560D01*
X031247Y020520D01*
X031215Y020482D01*
X031179Y020447D01*
X031140Y020415D01*
X031099Y020386D01*
X031056Y020360D01*
X031011Y020338D01*
X030965Y020320D01*
X030917Y020305D01*
X030868Y020294D01*
X030819Y020287D01*
X030769Y020284D01*
X030718Y020285D01*
X030669Y020290D01*
X030619Y020299D01*
X030571Y020312D01*
X030524Y020328D01*
X030478Y020349D01*
X030434Y020373D01*
X030392Y020400D01*
X030352Y020430D01*
X030315Y020464D01*
X030281Y020501D01*
X030249Y020540D01*
X030221Y020581D01*
X030196Y020625D01*
X030175Y020670D01*
X030158Y020717D01*
X030144Y020765D01*
X030134Y020814D01*
X030128Y020864D01*
X030126Y020914D01*
X030138Y001260D02*
X030140Y001310D01*
X030146Y001360D01*
X030156Y001409D01*
X030170Y001457D01*
X030187Y001504D01*
X030208Y001549D01*
X030233Y001593D01*
X030261Y001634D01*
X030293Y001673D01*
X030327Y001710D01*
X030364Y001744D01*
X030404Y001774D01*
X030446Y001801D01*
X030490Y001825D01*
X030536Y001846D01*
X030583Y001862D01*
X030631Y001875D01*
X030681Y001884D01*
X030730Y001889D01*
X030781Y001890D01*
X030831Y001887D01*
X030880Y001880D01*
X030929Y001869D01*
X030977Y001854D01*
X031023Y001836D01*
X031068Y001814D01*
X031111Y001788D01*
X031152Y001759D01*
X031191Y001727D01*
X031227Y001692D01*
X031259Y001654D01*
X031289Y001614D01*
X031316Y001571D01*
X031339Y001527D01*
X031358Y001481D01*
X031374Y001433D01*
X031386Y001384D01*
X031394Y001335D01*
X031398Y001285D01*
X031398Y001235D01*
X031394Y001185D01*
X031386Y001136D01*
X031374Y001087D01*
X031358Y001039D01*
X031339Y000993D01*
X031316Y000949D01*
X031289Y000906D01*
X031259Y000866D01*
X031227Y000828D01*
X031191Y000793D01*
X031152Y000761D01*
X031111Y000732D01*
X031068Y000706D01*
X031023Y000684D01*
X030977Y000666D01*
X030929Y000651D01*
X030880Y000640D01*
X030831Y000633D01*
X030781Y000630D01*
X030730Y000631D01*
X030681Y000636D01*
X030631Y000645D01*
X030583Y000658D01*
X030536Y000674D01*
X030490Y000695D01*
X030446Y000719D01*
X030404Y000746D01*
X030364Y000776D01*
X030327Y000810D01*
X030293Y000847D01*
X030261Y000886D01*
X030233Y000927D01*
X030208Y000971D01*
X030187Y001016D01*
X030170Y001063D01*
X030156Y001111D01*
X030146Y001160D01*
X030140Y001210D01*
X030138Y001260D01*
M02*
