G75*
G70*
%OFA0B0*%
%FSLAX24Y24*%
%IPPOS*%
%LPD*%
%AMOC8*
5,1,8,0,0,1.08239X$1,22.5*
%
%ADD10C,0.1340*%
%ADD11R,0.2283X0.0669*%
%ADD12C,0.0680*%
%ADD13OC8,0.0600*%
%ADD14C,0.0740*%
%ADD15C,0.0780*%
%ADD16C,0.0880*%
%ADD17C,0.0820*%
%ADD18OC8,0.0740*%
%ADD19C,0.0580*%
D10*
X001260Y001260D03*
X001260Y020914D03*
X030756Y020914D03*
X030768Y001260D03*
D11*
X025910Y019158D03*
D12*
X013305Y004684D02*
X013305Y004084D01*
X012305Y004084D02*
X012305Y004684D01*
X011305Y004684D02*
X011305Y004084D01*
X010305Y004084D02*
X010305Y004684D01*
X009305Y004684D02*
X009305Y004084D01*
X008305Y004084D02*
X008305Y004684D01*
X007305Y004684D02*
X007305Y004084D01*
X006305Y004084D02*
X006305Y004684D01*
X005305Y004684D02*
X005305Y004084D01*
X004305Y004084D02*
X004305Y004684D01*
D13*
X009866Y007914D03*
X009866Y010914D03*
X008262Y014109D03*
X012154Y014016D03*
X014154Y014016D03*
X019524Y013488D03*
X021311Y013488D03*
X023099Y013488D03*
X023099Y010488D03*
X021311Y010488D03*
X019524Y010488D03*
X008262Y017109D03*
D14*
X012051Y009870D03*
X013351Y009870D03*
D15*
X005796Y010932D03*
X004024Y010932D03*
X004024Y008373D03*
X005796Y008373D03*
X004260Y014940D03*
X003260Y016760D03*
X005260Y016760D03*
D16*
X022016Y005579D03*
X025016Y005579D03*
D17*
X013654Y016654D03*
X013154Y017404D03*
X012654Y016654D03*
D18*
X028106Y015614D03*
X029106Y015614D03*
X029106Y012465D03*
X028106Y012465D03*
X028106Y009315D03*
X029106Y009315D03*
D19*
X022176Y016545D02*
X022176Y017045D01*
X021476Y017045D02*
X021476Y016545D01*
X020776Y016545D02*
X020776Y017045D01*
X020076Y017045D02*
X020076Y016545D01*
M02*
