%
M48
M72
T01C0.0236
T02C0.0300
T03C0.0315
T04C0.0320
T05C0.0354
T06C0.0400
%
T01
X2622Y1047
X3803Y1047
X4984Y1047
X6480Y2819
X8055Y2819
X9630Y2819
X14354Y3606
X14354Y5181
X23016Y8725
X30575Y5378
X30575Y4197
X30575Y3016
X29000Y1441
X27819Y1441
X26638Y1441
X30575Y17189
X30575Y18370
X30575Y19551
X29000Y20732
X27819Y20732
X26638Y20732
X5378Y20732
X4197Y20732
X3016Y20732
X1047Y19158
X1047Y17977
X1047Y16795
X1047Y4984
X1047Y3803
X1047Y2622
T02
X20076Y16795
X20776Y16795
X21476Y16795
X22176Y16795
T03
X13351Y9870
X12051Y9870
X4260Y14940
X3260Y16760
X5260Y16760
X22016Y5579
X25016Y5579
T04
X28106Y9315
X29106Y9315
X29106Y12465
X28106Y12465
X28106Y15614
X29106Y15614
X23099Y13488
X21311Y13488
X19524Y13488
X19524Y10488
X21311Y10488
X23099Y10488
X14154Y14016
X12154Y14016
X12654Y16654
X13154Y17404
X13654Y16654
X8262Y17109
X8262Y14109
X9866Y10914
X9866Y7914
T05
X5796Y8373
X4024Y8373
X4024Y10932
X5796Y10932
T06
X5305Y4384
X6305Y4384
X7305Y4384
X8305Y4384
X9305Y4384
X10305Y4384
X11305Y4384
X12305Y4384
X13305Y4384
X4305Y4384
M30
