G75*
G70*
%OFA0B0*%
%FSLAX24Y24*%
%IPPOS*%
%LPD*%
%AMOC8*
5,1,8,0,0,1.08239X$1,22.5*
%
%ADD10C,0.0600*%
%ADD11OC8,0.0520*%
%ADD12C,0.0660*%
%ADD13C,0.0700*%
%ADD14C,0.0800*%
%ADD15C,0.0740*%
%ADD16OC8,0.0660*%
%ADD17C,0.0500*%
%ADD18C,0.0160*%
%ADD19C,0.0396*%
D10*
X004305Y004084D02*
X004305Y004684D01*
X005305Y004684D02*
X005305Y004084D01*
X006305Y004084D02*
X006305Y004684D01*
X007305Y004684D02*
X007305Y004084D01*
X008305Y004084D02*
X008305Y004684D01*
X009305Y004684D02*
X009305Y004084D01*
X010305Y004084D02*
X010305Y004684D01*
X011305Y004684D02*
X011305Y004084D01*
X012305Y004084D02*
X012305Y004684D01*
X013305Y004684D02*
X013305Y004084D01*
D11*
X009866Y007914D03*
X009866Y010914D03*
X008262Y014109D03*
X012154Y014016D03*
X014154Y014016D03*
X019524Y013488D03*
X021311Y013488D03*
X023099Y013488D03*
X023099Y010488D03*
X021311Y010488D03*
X019524Y010488D03*
X008262Y017109D03*
D12*
X012051Y009870D03*
X013351Y009870D03*
D13*
X005796Y010932D03*
X004024Y010932D03*
X004024Y008373D03*
X005796Y008373D03*
X004260Y014940D03*
X003260Y016760D03*
X005260Y016760D03*
D14*
X022016Y005579D03*
X025016Y005579D03*
D15*
X013654Y016654D03*
X013154Y017404D03*
X012654Y016654D03*
D16*
X028106Y015614D03*
X029106Y015614D03*
X029106Y012465D03*
X028106Y012465D03*
X028106Y009315D03*
X029106Y009315D03*
D17*
X022176Y016545D02*
X022176Y017045D01*
X021476Y017045D02*
X021476Y016545D01*
X020776Y016545D02*
X020776Y017045D01*
X020076Y017045D02*
X020076Y016545D01*
D18*
X002294Y000832D02*
X002241Y000740D01*
X029786Y000740D01*
X029734Y000832D01*
X029658Y001114D01*
X029658Y001406D01*
X029734Y001688D01*
X029880Y001942D01*
X030086Y002148D01*
X030339Y002294D01*
X030622Y002370D01*
X030914Y002370D01*
X031196Y002294D01*
X031276Y002248D01*
X031276Y019932D01*
X031184Y019879D01*
X030902Y019804D01*
X030610Y019804D01*
X030328Y019879D01*
X030075Y020025D01*
X029868Y020232D01*
X029722Y020485D01*
X029646Y020767D01*
X029646Y021060D01*
X029722Y021342D01*
X029775Y021434D01*
X002241Y021434D01*
X002294Y021342D01*
X002370Y021060D01*
X002370Y020767D01*
X002294Y020485D01*
X002148Y020232D01*
X001942Y020025D01*
X001688Y019879D01*
X001406Y019804D01*
X001114Y019804D01*
X000832Y019879D01*
X000740Y019932D01*
X000740Y002241D01*
X000832Y002294D01*
X001114Y002370D01*
X001406Y002370D01*
X001688Y002294D01*
X001942Y002148D01*
X002148Y001942D01*
X002294Y001688D01*
X002370Y001406D01*
X002370Y001114D01*
X002294Y000832D01*
X002311Y000894D02*
X029717Y000894D01*
X029674Y001053D02*
X002353Y001053D01*
X002370Y001211D02*
X029658Y001211D01*
X029658Y001370D02*
X002370Y001370D01*
X002337Y001528D02*
X029691Y001528D01*
X029733Y001687D02*
X002295Y001687D01*
X002204Y001845D02*
X029824Y001845D01*
X029942Y002004D02*
X002086Y002004D01*
X001918Y002162D02*
X030110Y002162D01*
X030437Y002321D02*
X001591Y002321D01*
X000929Y002321D02*
X000740Y002321D01*
X000740Y002479D02*
X031276Y002479D01*
X031276Y002321D02*
X031098Y002321D01*
X031276Y002638D02*
X000740Y002638D01*
X000740Y002796D02*
X031276Y002796D01*
X031276Y002955D02*
X000740Y002955D01*
X000740Y003113D02*
X031276Y003113D01*
X031276Y003272D02*
X000740Y003272D01*
X000740Y003430D02*
X031276Y003430D01*
X031276Y003589D02*
X000740Y003589D01*
X000740Y003747D02*
X003963Y003747D01*
X003898Y003812D02*
X004033Y003677D01*
X004209Y003604D01*
X004400Y003604D01*
X004577Y003677D01*
X004712Y003812D01*
X004785Y003988D01*
X004785Y004779D01*
X004712Y004956D01*
X004577Y005091D01*
X004400Y005164D01*
X004209Y005164D01*
X004033Y005091D01*
X003898Y004956D01*
X003825Y004779D01*
X003825Y003988D01*
X003898Y003812D01*
X003859Y003906D02*
X000740Y003906D01*
X000740Y004064D02*
X003825Y004064D01*
X003825Y004223D02*
X000740Y004223D01*
X000740Y004381D02*
X003825Y004381D01*
X003825Y004540D02*
X000740Y004540D01*
X000740Y004698D02*
X003825Y004698D01*
X003857Y004857D02*
X000740Y004857D01*
X000740Y005015D02*
X003957Y005015D01*
X004652Y005015D02*
X004957Y005015D01*
X004898Y004956D02*
X004825Y004779D01*
X004825Y003988D01*
X004898Y003812D01*
X005033Y003677D01*
X005209Y003604D01*
X005400Y003604D01*
X005577Y003677D01*
X005712Y003812D01*
X005785Y003988D01*
X005785Y004779D01*
X005712Y004956D01*
X005577Y005091D01*
X005400Y005164D01*
X005209Y005164D01*
X005033Y005091D01*
X004898Y004956D01*
X004857Y004857D02*
X004753Y004857D01*
X004785Y004698D02*
X004825Y004698D01*
X004825Y004540D02*
X004785Y004540D01*
X004785Y004381D02*
X004825Y004381D01*
X004825Y004223D02*
X004785Y004223D01*
X004785Y004064D02*
X004825Y004064D01*
X004859Y003906D02*
X004751Y003906D01*
X004647Y003747D02*
X004963Y003747D01*
X005647Y003747D02*
X005963Y003747D01*
X005898Y003812D02*
X006033Y003677D01*
X006209Y003604D01*
X006400Y003604D01*
X006577Y003677D01*
X006712Y003812D01*
X006785Y003988D01*
X006785Y004779D01*
X006712Y004956D01*
X006577Y005091D01*
X006400Y005164D01*
X006209Y005164D01*
X006033Y005091D01*
X005898Y004956D01*
X005825Y004779D01*
X005825Y003988D01*
X005898Y003812D01*
X005859Y003906D02*
X005751Y003906D01*
X005785Y004064D02*
X005825Y004064D01*
X005825Y004223D02*
X005785Y004223D01*
X005785Y004381D02*
X005825Y004381D01*
X005825Y004540D02*
X005785Y004540D01*
X005785Y004698D02*
X005825Y004698D01*
X005857Y004857D02*
X005753Y004857D01*
X005652Y005015D02*
X005957Y005015D01*
X006652Y005015D02*
X006957Y005015D01*
X006898Y004956D02*
X006825Y004779D01*
X006825Y003988D01*
X006898Y003812D01*
X007033Y003677D01*
X007209Y003604D01*
X007400Y003604D01*
X007577Y003677D01*
X007712Y003812D01*
X007785Y003988D01*
X007785Y004779D01*
X007712Y004956D01*
X007577Y005091D01*
X007400Y005164D01*
X007209Y005164D01*
X007033Y005091D01*
X006898Y004956D01*
X006857Y004857D02*
X006753Y004857D01*
X006785Y004698D02*
X006825Y004698D01*
X006825Y004540D02*
X006785Y004540D01*
X006785Y004381D02*
X006825Y004381D01*
X006825Y004223D02*
X006785Y004223D01*
X006785Y004064D02*
X006825Y004064D01*
X006859Y003906D02*
X006751Y003906D01*
X006647Y003747D02*
X006963Y003747D01*
X007647Y003747D02*
X007963Y003747D01*
X007898Y003812D02*
X008033Y003677D01*
X008209Y003604D01*
X008400Y003604D01*
X008577Y003677D01*
X008712Y003812D01*
X008785Y003988D01*
X008785Y004779D01*
X008712Y004956D01*
X008577Y005091D01*
X008400Y005164D01*
X008209Y005164D01*
X008033Y005091D01*
X007898Y004956D01*
X007825Y004779D01*
X007825Y003988D01*
X007898Y003812D01*
X007859Y003906D02*
X007751Y003906D01*
X007785Y004064D02*
X007825Y004064D01*
X007825Y004223D02*
X007785Y004223D01*
X007785Y004381D02*
X007825Y004381D01*
X007825Y004540D02*
X007785Y004540D01*
X007785Y004698D02*
X007825Y004698D01*
X007857Y004857D02*
X007753Y004857D01*
X007652Y005015D02*
X007957Y005015D01*
X008652Y005015D02*
X008957Y005015D01*
X008898Y004956D02*
X008825Y004779D01*
X008825Y003988D01*
X008898Y003812D01*
X009033Y003677D01*
X009209Y003604D01*
X009400Y003604D01*
X009577Y003677D01*
X009712Y003812D01*
X009785Y003988D01*
X009785Y004779D01*
X009712Y004956D01*
X009577Y005091D01*
X009400Y005164D01*
X009209Y005164D01*
X009033Y005091D01*
X008898Y004956D01*
X008857Y004857D02*
X008753Y004857D01*
X008785Y004698D02*
X008825Y004698D01*
X008825Y004540D02*
X008785Y004540D01*
X008785Y004381D02*
X008825Y004381D01*
X008825Y004223D02*
X008785Y004223D01*
X008785Y004064D02*
X008825Y004064D01*
X008859Y003906D02*
X008751Y003906D01*
X008647Y003747D02*
X008963Y003747D01*
X009647Y003747D02*
X009963Y003747D01*
X009898Y003812D02*
X010033Y003677D01*
X010209Y003604D01*
X010400Y003604D01*
X010577Y003677D01*
X010712Y003812D01*
X010785Y003988D01*
X010785Y004779D01*
X010712Y004956D01*
X010577Y005091D01*
X010400Y005164D01*
X010209Y005164D01*
X010033Y005091D01*
X009898Y004956D01*
X009825Y004779D01*
X009825Y003988D01*
X009898Y003812D01*
X009859Y003906D02*
X009751Y003906D01*
X009785Y004064D02*
X009825Y004064D01*
X009825Y004223D02*
X009785Y004223D01*
X009785Y004381D02*
X009825Y004381D01*
X009825Y004540D02*
X009785Y004540D01*
X009785Y004698D02*
X009825Y004698D01*
X009857Y004857D02*
X009753Y004857D01*
X009652Y005015D02*
X009957Y005015D01*
X010652Y005015D02*
X010957Y005015D01*
X010898Y004956D02*
X010825Y004779D01*
X010825Y003988D01*
X010898Y003812D01*
X011033Y003677D01*
X011209Y003604D01*
X011400Y003604D01*
X011577Y003677D01*
X011712Y003812D01*
X011785Y003988D01*
X011785Y004779D01*
X011712Y004956D01*
X011577Y005091D01*
X011400Y005164D01*
X011209Y005164D01*
X011033Y005091D01*
X010898Y004956D01*
X010857Y004857D02*
X010753Y004857D01*
X010785Y004698D02*
X010825Y004698D01*
X010825Y004540D02*
X010785Y004540D01*
X010785Y004381D02*
X010825Y004381D01*
X010825Y004223D02*
X010785Y004223D01*
X010785Y004064D02*
X010825Y004064D01*
X010859Y003906D02*
X010751Y003906D01*
X010647Y003747D02*
X010963Y003747D01*
X011647Y003747D02*
X011963Y003747D01*
X011898Y003812D02*
X012033Y003677D01*
X012209Y003604D01*
X012400Y003604D01*
X012577Y003677D01*
X012712Y003812D01*
X012785Y003988D01*
X012785Y004779D01*
X012712Y004956D01*
X012577Y005091D01*
X012400Y005164D01*
X012209Y005164D01*
X012033Y005091D01*
X011898Y004956D01*
X011825Y004779D01*
X011825Y003988D01*
X011898Y003812D01*
X011859Y003906D02*
X011751Y003906D01*
X011785Y004064D02*
X011825Y004064D01*
X011825Y004223D02*
X011785Y004223D01*
X011785Y004381D02*
X011825Y004381D01*
X011825Y004540D02*
X011785Y004540D01*
X011785Y004698D02*
X011825Y004698D01*
X011857Y004857D02*
X011753Y004857D01*
X011652Y005015D02*
X011957Y005015D01*
X012652Y005015D02*
X012957Y005015D01*
X012939Y004996D02*
X012894Y004935D01*
X012860Y004868D01*
X012837Y004796D01*
X012825Y004721D01*
X012825Y004404D01*
X013285Y004404D01*
X013285Y005164D01*
X013267Y005164D01*
X013192Y005152D01*
X013121Y005129D01*
X013053Y005094D01*
X012992Y005050D01*
X012939Y004996D01*
X012856Y004857D02*
X012753Y004857D01*
X012785Y004698D02*
X012825Y004698D01*
X012825Y004540D02*
X012785Y004540D01*
X012785Y004381D02*
X013285Y004381D01*
X013285Y004364D02*
X012825Y004364D01*
X012825Y004046D01*
X012837Y003971D01*
X012860Y003899D01*
X012894Y003832D01*
X012939Y003771D01*
X012992Y003718D01*
X013053Y003673D01*
X013121Y003639D01*
X013192Y003616D01*
X013267Y003604D01*
X013285Y003604D01*
X013285Y004364D01*
X013285Y004404D01*
X013325Y004404D01*
X013325Y005164D01*
X013343Y005164D01*
X013417Y005152D01*
X013489Y005129D01*
X013556Y005094D01*
X013618Y005050D01*
X013671Y004996D01*
X013715Y004935D01*
X013750Y004868D01*
X013773Y004796D01*
X013785Y004721D01*
X013785Y004404D01*
X013325Y004404D01*
X013325Y004364D01*
X013785Y004364D01*
X013785Y004046D01*
X013773Y003971D01*
X013750Y003899D01*
X013715Y003832D01*
X013671Y003771D01*
X013618Y003718D01*
X013556Y003673D01*
X013489Y003639D01*
X013417Y003616D01*
X013343Y003604D01*
X013325Y003604D01*
X013325Y004364D01*
X013285Y004364D01*
X013325Y004381D02*
X031276Y004381D01*
X031276Y004223D02*
X013785Y004223D01*
X013785Y004064D02*
X031276Y004064D01*
X031276Y003906D02*
X013752Y003906D01*
X013647Y003747D02*
X031276Y003747D01*
X031276Y004540D02*
X013785Y004540D01*
X013785Y004698D02*
X031276Y004698D01*
X031276Y004857D02*
X013753Y004857D01*
X013652Y005015D02*
X021862Y005015D01*
X021901Y004999D02*
X022131Y004999D01*
X022344Y005087D01*
X022508Y005250D01*
X022596Y005464D01*
X022596Y005694D01*
X022508Y005907D01*
X022344Y006071D01*
X022131Y006159D01*
X021901Y006159D01*
X021687Y006071D01*
X021524Y005907D01*
X021436Y005694D01*
X021436Y005464D01*
X021524Y005250D01*
X021687Y005087D01*
X021901Y004999D01*
X022170Y005015D02*
X024874Y005015D01*
X024880Y005013D02*
X024970Y004999D01*
X025016Y004999D01*
X025062Y004999D01*
X025152Y005013D01*
X025239Y005041D01*
X025320Y005083D01*
X025394Y005136D01*
X025458Y005201D01*
X025512Y005275D01*
X025553Y005356D01*
X025582Y005443D01*
X025596Y005533D01*
X025596Y005579D01*
X025596Y005625D01*
X025582Y005715D01*
X025553Y005802D01*
X025512Y005883D01*
X025458Y005957D01*
X025394Y006021D01*
X025320Y006075D01*
X025239Y006116D01*
X025152Y006145D01*
X025062Y006159D01*
X025016Y006159D01*
X025016Y005579D01*
X025596Y005579D01*
X025016Y005579D01*
X025016Y005579D01*
X025016Y005579D01*
X025016Y006159D01*
X024970Y006159D01*
X024880Y006145D01*
X024793Y006116D01*
X024712Y006075D01*
X024638Y006021D01*
X024574Y005957D01*
X024520Y005883D01*
X024478Y005802D01*
X024450Y005715D01*
X024436Y005625D01*
X024436Y005579D01*
X025016Y005579D01*
X025016Y005579D01*
X025016Y004999D01*
X025016Y005579D01*
X025016Y005579D01*
X024436Y005579D01*
X024436Y005533D01*
X024450Y005443D01*
X024478Y005356D01*
X024520Y005275D01*
X024574Y005201D01*
X024638Y005136D01*
X024712Y005083D01*
X024793Y005041D01*
X024880Y005013D01*
X025016Y005015D02*
X025016Y005015D01*
X025157Y005015D02*
X031276Y005015D01*
X031276Y005174D02*
X025431Y005174D01*
X025541Y005332D02*
X031276Y005332D01*
X031276Y005491D02*
X025589Y005491D01*
X025592Y005649D02*
X031276Y005649D01*
X031276Y005808D02*
X025550Y005808D01*
X025449Y005966D02*
X031276Y005966D01*
X031276Y006125D02*
X025214Y006125D01*
X025016Y006125D02*
X025016Y006125D01*
X025016Y005966D02*
X025016Y005966D01*
X025016Y005808D02*
X025016Y005808D01*
X025016Y005649D02*
X025016Y005649D01*
X025016Y005491D02*
X025016Y005491D01*
X025016Y005332D02*
X025016Y005332D01*
X025016Y005174D02*
X025016Y005174D01*
X024601Y005174D02*
X022431Y005174D01*
X022541Y005332D02*
X024491Y005332D01*
X024443Y005491D02*
X022596Y005491D01*
X022596Y005649D02*
X024440Y005649D01*
X024481Y005808D02*
X022549Y005808D01*
X022449Y005966D02*
X024583Y005966D01*
X024818Y006125D02*
X022214Y006125D01*
X021818Y006125D02*
X000740Y006125D01*
X000740Y006283D02*
X031276Y006283D01*
X031276Y006442D02*
X000740Y006442D01*
X000740Y006600D02*
X031276Y006600D01*
X031276Y006759D02*
X000740Y006759D01*
X000740Y006917D02*
X031276Y006917D01*
X031276Y007076D02*
X000740Y007076D01*
X000740Y007234D02*
X031276Y007234D01*
X031276Y007393D02*
X000740Y007393D01*
X000740Y007551D02*
X009607Y007551D01*
X009684Y007474D02*
X010049Y007474D01*
X010306Y007731D01*
X010306Y008096D01*
X010049Y008354D01*
X009684Y008354D01*
X009426Y008096D01*
X009426Y007731D01*
X009684Y007474D01*
X009448Y007710D02*
X000740Y007710D01*
X000740Y007868D02*
X003857Y007868D01*
X003919Y007843D02*
X004130Y007843D01*
X004324Y007923D01*
X004473Y008072D01*
X004554Y008267D01*
X004554Y008478D01*
X004473Y008673D01*
X004324Y008822D01*
X004130Y008903D01*
X003919Y008903D01*
X003724Y008822D01*
X003575Y008673D01*
X003494Y008478D01*
X003494Y008267D01*
X003575Y008072D01*
X003724Y007923D01*
X003919Y007843D01*
X004191Y007868D02*
X005634Y007868D01*
X005672Y007856D02*
X005754Y007843D01*
X005787Y007843D01*
X005787Y008364D01*
X005266Y008364D01*
X005266Y008331D01*
X005279Y008248D01*
X005305Y008169D01*
X005342Y008095D01*
X005391Y008027D01*
X005450Y007968D01*
X005518Y007919D01*
X005592Y007881D01*
X005672Y007856D01*
X005787Y007868D02*
X005804Y007868D01*
X005804Y007843D02*
X005837Y007843D01*
X005920Y007856D01*
X005999Y007881D01*
X006074Y007919D01*
X006141Y007968D01*
X006200Y008027D01*
X006249Y008095D01*
X006287Y008169D01*
X006313Y008248D01*
X006326Y008331D01*
X006326Y008364D01*
X005804Y008364D01*
X005804Y007843D01*
X005958Y007868D02*
X009426Y007868D01*
X009426Y008027D02*
X006199Y008027D01*
X006292Y008185D02*
X009516Y008185D01*
X009674Y008344D02*
X006326Y008344D01*
X006326Y008381D02*
X006326Y008414D01*
X006313Y008497D01*
X006287Y008576D01*
X006249Y008650D01*
X006200Y008718D01*
X006141Y008777D01*
X006074Y008826D01*
X005999Y008864D01*
X005920Y008890D01*
X005837Y008903D01*
X005804Y008903D01*
X005804Y008381D01*
X005787Y008381D01*
X005787Y008364D01*
X005804Y008364D01*
X005804Y008381D01*
X006326Y008381D01*
X006311Y008502D02*
X031276Y008502D01*
X031276Y008344D02*
X010059Y008344D01*
X010217Y008185D02*
X031276Y008185D01*
X031276Y008027D02*
X010306Y008027D01*
X010306Y007868D02*
X031276Y007868D01*
X031276Y007710D02*
X010285Y007710D01*
X010126Y007551D02*
X031276Y007551D01*
X031276Y008661D02*
X006242Y008661D01*
X006083Y008819D02*
X027881Y008819D01*
X027895Y008805D02*
X028318Y008805D01*
X028606Y009094D01*
X028895Y008805D01*
X029106Y008805D01*
X029106Y009315D01*
X029106Y009315D01*
X029106Y009825D01*
X028895Y009825D01*
X028606Y009536D01*
X028318Y009825D01*
X027895Y009825D01*
X027596Y009526D01*
X027596Y009104D01*
X027895Y008805D01*
X027723Y008978D02*
X000740Y008978D01*
X000740Y009136D02*
X027596Y009136D01*
X027596Y009295D02*
X000740Y009295D01*
X000740Y009453D02*
X011747Y009453D01*
X011762Y009438D02*
X011949Y009360D01*
X012152Y009360D01*
X012339Y009438D01*
X012483Y009581D01*
X012561Y009769D01*
X012561Y009972D01*
X012483Y010159D01*
X012339Y010303D01*
X012152Y010380D01*
X011949Y010380D01*
X011762Y010303D01*
X011618Y010159D01*
X011541Y009972D01*
X011541Y009769D01*
X011618Y009581D01*
X011762Y009438D01*
X011606Y009612D02*
X000740Y009612D01*
X000740Y009770D02*
X011541Y009770D01*
X011541Y009929D02*
X000740Y009929D01*
X000740Y010087D02*
X011588Y010087D01*
X011705Y010246D02*
X000740Y010246D01*
X000740Y010404D02*
X003913Y010404D01*
X003919Y010402D02*
X004130Y010402D01*
X004324Y010482D01*
X004473Y010631D01*
X004554Y010826D01*
X004554Y011037D01*
X004473Y011232D01*
X004324Y011381D01*
X004130Y011462D01*
X003919Y011462D01*
X003724Y011381D01*
X003575Y011232D01*
X003494Y011037D01*
X003494Y010826D01*
X003575Y010631D01*
X003724Y010482D01*
X003919Y010402D01*
X004135Y010404D02*
X005739Y010404D01*
X005754Y010402D02*
X005672Y010415D01*
X005592Y010440D01*
X005518Y010478D01*
X005450Y010527D01*
X005391Y010586D01*
X005342Y010654D01*
X005305Y010728D01*
X005279Y010808D01*
X005266Y010890D01*
X005266Y010923D01*
X005787Y010923D01*
X005787Y010940D01*
X005266Y010940D01*
X005266Y010973D01*
X005279Y011056D01*
X005305Y011135D01*
X005342Y011209D01*
X005391Y011277D01*
X005450Y011336D01*
X005518Y011385D01*
X005592Y011423D01*
X005672Y011449D01*
X005754Y011462D01*
X005787Y011462D01*
X005787Y010940D01*
X005804Y010940D01*
X005804Y011462D01*
X005837Y011462D01*
X005920Y011449D01*
X005999Y011423D01*
X006074Y011385D01*
X006141Y011336D01*
X006200Y011277D01*
X006249Y011209D01*
X006287Y011135D01*
X006313Y011056D01*
X006326Y010973D01*
X006326Y010940D01*
X005804Y010940D01*
X005804Y010923D01*
X005804Y010402D01*
X005837Y010402D01*
X005920Y010415D01*
X005999Y010440D01*
X006074Y010478D01*
X006141Y010527D01*
X006200Y010586D01*
X006249Y010654D01*
X006287Y010728D01*
X006313Y010808D01*
X006326Y010890D01*
X006326Y010923D01*
X005804Y010923D01*
X005787Y010923D01*
X005787Y010402D01*
X005754Y010402D01*
X005787Y010404D02*
X005804Y010404D01*
X005852Y010404D02*
X019084Y010404D01*
X019084Y010306D02*
X019342Y010048D01*
X019706Y010048D01*
X019964Y010306D01*
X019964Y010671D01*
X019706Y010928D01*
X019342Y010928D01*
X019084Y010671D01*
X019084Y010306D01*
X019144Y010246D02*
X013697Y010246D01*
X013639Y010303D02*
X013452Y010380D01*
X013249Y010380D01*
X013062Y010303D01*
X012918Y010159D01*
X012841Y009972D01*
X012841Y009769D01*
X012918Y009581D01*
X013062Y009438D01*
X013249Y009360D01*
X013452Y009360D01*
X013639Y009438D01*
X013783Y009581D01*
X013861Y009769D01*
X013861Y009972D01*
X013783Y010159D01*
X013639Y010303D01*
X013813Y010087D02*
X019303Y010087D01*
X019745Y010087D02*
X021090Y010087D01*
X021129Y010048D02*
X021493Y010048D01*
X021751Y010306D01*
X021751Y010671D01*
X021493Y010928D01*
X021129Y010928D01*
X020871Y010671D01*
X020871Y010306D01*
X021129Y010048D01*
X020932Y010246D02*
X019903Y010246D01*
X019964Y010404D02*
X020871Y010404D01*
X020871Y010563D02*
X019964Y010563D01*
X019913Y010721D02*
X020922Y010721D01*
X021080Y010880D02*
X019755Y010880D01*
X019293Y010880D02*
X010306Y010880D01*
X010306Y010914D02*
X009866Y010914D01*
X009866Y011354D01*
X009684Y011354D01*
X009426Y011096D01*
X009426Y010914D01*
X009866Y010914D01*
X009866Y010914D01*
X009866Y010914D01*
X009866Y011354D01*
X010049Y011354D01*
X010306Y011096D01*
X010306Y010914D01*
X009866Y010914D01*
X009426Y010914D01*
X009426Y010731D01*
X009684Y010474D01*
X009866Y010474D01*
X009866Y010914D01*
X009866Y010914D01*
X009866Y010914D01*
X009866Y010474D01*
X010049Y010474D01*
X010306Y010731D01*
X010306Y010914D01*
X010306Y011038D02*
X031276Y011038D01*
X031276Y010880D02*
X023330Y010880D01*
X023281Y010928D02*
X022916Y010928D01*
X022659Y010671D01*
X022659Y010306D01*
X022916Y010048D01*
X023281Y010048D01*
X023539Y010306D01*
X023539Y010671D01*
X023281Y010928D01*
X023488Y010721D02*
X031276Y010721D01*
X031276Y010563D02*
X023539Y010563D01*
X023539Y010404D02*
X031276Y010404D01*
X031276Y010246D02*
X023478Y010246D01*
X023320Y010087D02*
X031276Y010087D01*
X031276Y009929D02*
X013861Y009929D01*
X013861Y009770D02*
X027840Y009770D01*
X027682Y009612D02*
X013795Y009612D01*
X013655Y009453D02*
X027596Y009453D01*
X028373Y009770D02*
X028840Y009770D01*
X028682Y009612D02*
X028531Y009612D01*
X029106Y009612D02*
X029106Y009612D01*
X029106Y009770D02*
X029106Y009770D01*
X029106Y009825D02*
X029318Y009825D01*
X029616Y009526D01*
X029616Y009315D01*
X029106Y009315D01*
X029106Y009315D01*
X029106Y008805D01*
X029318Y008805D01*
X029616Y009104D01*
X029616Y009315D01*
X029106Y009315D01*
X029106Y009825D01*
X029373Y009770D02*
X031276Y009770D01*
X031276Y009612D02*
X029531Y009612D01*
X029616Y009453D02*
X031276Y009453D01*
X031276Y009295D02*
X029616Y009295D01*
X029616Y009136D02*
X031276Y009136D01*
X031276Y008978D02*
X029490Y008978D01*
X029332Y008819D02*
X031276Y008819D01*
X029106Y008819D02*
X029106Y008819D01*
X029106Y008978D02*
X029106Y008978D01*
X029106Y009136D02*
X029106Y009136D01*
X029106Y009295D02*
X029106Y009295D01*
X029106Y009315D02*
X029106Y009315D01*
X029106Y009453D02*
X029106Y009453D01*
X028723Y008978D02*
X028490Y008978D01*
X028332Y008819D02*
X028881Y008819D01*
X031276Y011197D02*
X010206Y011197D01*
X009866Y011197D02*
X009866Y011197D01*
X009866Y011038D02*
X009866Y011038D01*
X009866Y010880D02*
X009866Y010880D01*
X009866Y010721D02*
X009866Y010721D01*
X009866Y010563D02*
X009866Y010563D01*
X009595Y010563D02*
X006176Y010563D01*
X006283Y010721D02*
X009437Y010721D01*
X009426Y010880D02*
X006324Y010880D01*
X006316Y011038D02*
X009426Y011038D01*
X009527Y011197D02*
X006256Y011197D01*
X006115Y011355D02*
X031276Y011355D01*
X031276Y011514D02*
X000740Y011514D01*
X000740Y011672D02*
X031276Y011672D01*
X031276Y011831D02*
X000740Y011831D01*
X000740Y011989D02*
X027861Y011989D01*
X027895Y011955D02*
X027596Y012253D01*
X027596Y012676D01*
X027895Y012975D01*
X028318Y012975D01*
X028606Y012686D01*
X028895Y012975D01*
X029106Y012975D01*
X029106Y012465D01*
X029106Y012465D01*
X029106Y012975D01*
X029318Y012975D01*
X029616Y012676D01*
X029616Y012465D01*
X029106Y012465D01*
X029106Y012465D01*
X029106Y011955D01*
X028895Y011955D01*
X028606Y012243D01*
X028318Y011955D01*
X027895Y011955D01*
X027702Y012148D02*
X000740Y012148D01*
X000740Y012306D02*
X027596Y012306D01*
X027596Y012465D02*
X000740Y012465D01*
X000740Y012623D02*
X027596Y012623D01*
X027702Y012782D02*
X000740Y012782D01*
X000740Y012940D02*
X027861Y012940D01*
X028352Y012940D02*
X028861Y012940D01*
X028702Y012782D02*
X028511Y012782D01*
X029106Y012782D02*
X029106Y012782D01*
X029106Y012940D02*
X029106Y012940D01*
X029352Y012940D02*
X031276Y012940D01*
X031276Y012782D02*
X029511Y012782D01*
X029616Y012623D02*
X031276Y012623D01*
X031276Y012465D02*
X029616Y012465D01*
X029106Y012465D01*
X029106Y012465D01*
X029106Y011955D01*
X029318Y011955D01*
X029616Y012253D01*
X029616Y012465D01*
X029616Y012306D02*
X031276Y012306D01*
X031276Y012148D02*
X029510Y012148D01*
X029352Y011989D02*
X031276Y011989D01*
X031276Y013099D02*
X023331Y013099D01*
X023281Y013048D02*
X022916Y013048D01*
X022659Y013306D01*
X022659Y013671D01*
X022916Y013928D01*
X023281Y013928D01*
X023539Y013671D01*
X023539Y013306D01*
X023281Y013048D01*
X023490Y013257D02*
X031276Y013257D01*
X031276Y013416D02*
X023539Y013416D01*
X023539Y013574D02*
X031276Y013574D01*
X031276Y013733D02*
X023477Y013733D01*
X023318Y013891D02*
X031276Y013891D01*
X031276Y014050D02*
X014594Y014050D01*
X014594Y014016D02*
X014594Y014198D01*
X014336Y014456D01*
X014154Y014456D01*
X014154Y014016D01*
X014594Y014016D01*
X014154Y014016D01*
X014154Y014016D01*
X014154Y014016D01*
X014154Y013576D01*
X014336Y013576D01*
X014594Y013834D01*
X014594Y014016D01*
X014594Y013891D02*
X019304Y013891D01*
X019342Y013928D02*
X019084Y013671D01*
X019084Y013306D01*
X019342Y013048D01*
X019706Y013048D01*
X019964Y013306D01*
X019964Y013671D01*
X019706Y013928D01*
X019342Y013928D01*
X019146Y013733D02*
X014493Y013733D01*
X014154Y013733D02*
X014154Y013733D01*
X014154Y013576D02*
X014154Y014016D01*
X014154Y014016D01*
X014154Y014456D01*
X013971Y014456D01*
X013714Y014198D01*
X013714Y014016D01*
X014154Y014016D01*
X014154Y014016D01*
X013714Y014016D01*
X013714Y013834D01*
X013971Y013576D01*
X014154Y013576D01*
X014154Y013891D02*
X014154Y013891D01*
X014154Y014050D02*
X014154Y014050D01*
X014154Y014208D02*
X014154Y014208D01*
X014154Y014367D02*
X014154Y014367D01*
X014425Y014367D02*
X031276Y014367D01*
X031276Y014525D02*
X008468Y014525D01*
X008444Y014549D02*
X008080Y014549D01*
X007822Y014291D01*
X007822Y013927D01*
X008080Y013669D01*
X008444Y013669D01*
X008702Y013927D01*
X008702Y014291D01*
X008444Y014549D01*
X008627Y014367D02*
X011882Y014367D01*
X011971Y014456D02*
X011714Y014198D01*
X011714Y013834D01*
X011971Y013576D01*
X012336Y013576D01*
X012594Y013834D01*
X012594Y014198D01*
X012336Y014456D01*
X011971Y014456D01*
X011724Y014208D02*
X008702Y014208D01*
X008702Y014050D02*
X011714Y014050D01*
X011714Y013891D02*
X008666Y013891D01*
X008507Y013733D02*
X011815Y013733D01*
X012493Y013733D02*
X013815Y013733D01*
X013714Y013891D02*
X012594Y013891D01*
X012594Y014050D02*
X013714Y014050D01*
X013724Y014208D02*
X012584Y014208D01*
X012425Y014367D02*
X013882Y014367D01*
X014584Y014208D02*
X031276Y014208D01*
X031276Y014684D02*
X004727Y014684D01*
X004709Y014640D02*
X004790Y014835D01*
X004790Y015045D01*
X004709Y015240D01*
X004560Y015389D01*
X004365Y015470D01*
X004155Y015470D01*
X003960Y015389D01*
X003811Y015240D01*
X003730Y015045D01*
X003730Y014835D01*
X003811Y014640D01*
X003960Y014491D01*
X004155Y014410D01*
X004365Y014410D01*
X004560Y014491D01*
X004709Y014640D01*
X004595Y014525D02*
X008055Y014525D01*
X007897Y014367D02*
X000740Y014367D01*
X000740Y014525D02*
X003925Y014525D01*
X003793Y014684D02*
X000740Y014684D01*
X000740Y014842D02*
X003730Y014842D01*
X003730Y015001D02*
X000740Y015001D01*
X000740Y015159D02*
X003777Y015159D01*
X003888Y015318D02*
X000740Y015318D01*
X000740Y015476D02*
X027596Y015476D01*
X027596Y015403D02*
X027895Y015104D01*
X028318Y015104D01*
X028606Y015393D01*
X028895Y015104D01*
X029106Y015104D01*
X029106Y015614D01*
X029106Y015614D01*
X029106Y015104D01*
X029318Y015104D01*
X029616Y015403D01*
X029616Y015614D01*
X029106Y015614D01*
X029106Y016124D01*
X028895Y016124D01*
X028606Y015836D01*
X028318Y016124D01*
X027895Y016124D01*
X027596Y015826D01*
X027596Y015403D01*
X027682Y015318D02*
X004632Y015318D01*
X004743Y015159D02*
X027841Y015159D01*
X028372Y015159D02*
X028841Y015159D01*
X028682Y015318D02*
X028531Y015318D01*
X029106Y015318D02*
X029106Y015318D01*
X029106Y015476D02*
X029106Y015476D01*
X029106Y015614D02*
X029106Y015614D01*
X029106Y015614D01*
X029106Y016124D01*
X029318Y016124D01*
X029616Y015826D01*
X029616Y015614D01*
X029106Y015614D01*
X029106Y015635D02*
X029106Y015635D01*
X029106Y015793D02*
X029106Y015793D01*
X029106Y015952D02*
X029106Y015952D01*
X029106Y016110D02*
X029106Y016110D01*
X028881Y016110D02*
X028332Y016110D01*
X028491Y015952D02*
X028722Y015952D01*
X029332Y016110D02*
X031276Y016110D01*
X031276Y015952D02*
X029491Y015952D01*
X029616Y015793D02*
X031276Y015793D01*
X031276Y015635D02*
X029616Y015635D01*
X029616Y015476D02*
X031276Y015476D01*
X031276Y015318D02*
X029531Y015318D01*
X029372Y015159D02*
X031276Y015159D01*
X031276Y015001D02*
X004790Y015001D01*
X004790Y014842D02*
X031276Y014842D01*
X031276Y016269D02*
X022507Y016269D01*
X022541Y016302D02*
X022606Y016460D01*
X022606Y017131D01*
X022541Y017289D01*
X022420Y017410D01*
X022262Y017475D01*
X022091Y017475D01*
X021933Y017410D01*
X021826Y017304D01*
X021720Y017410D01*
X021562Y017475D01*
X021391Y017475D01*
X021233Y017410D01*
X021123Y017300D01*
X021104Y017326D01*
X021056Y017373D01*
X021002Y017413D01*
X020941Y017444D01*
X020877Y017465D01*
X020810Y017475D01*
X020776Y017475D01*
X020742Y017475D01*
X020675Y017465D01*
X020611Y017444D01*
X020551Y017413D01*
X020496Y017373D01*
X020448Y017326D01*
X020430Y017300D01*
X020320Y017410D01*
X020162Y017475D01*
X019991Y017475D01*
X019833Y017410D01*
X019712Y017289D01*
X019646Y017131D01*
X019646Y016460D01*
X019712Y016302D01*
X019833Y016181D01*
X019991Y016115D01*
X020162Y016115D01*
X020320Y016181D01*
X020430Y016291D01*
X020448Y016265D01*
X020496Y016217D01*
X020551Y016178D01*
X020611Y016147D01*
X020675Y016126D01*
X020742Y016115D01*
X020776Y016115D01*
X020776Y016795D01*
X020776Y016795D01*
X020776Y016115D01*
X020810Y016115D01*
X020877Y016126D01*
X020941Y016147D01*
X021002Y016178D01*
X021056Y016217D01*
X021104Y016265D01*
X021123Y016291D01*
X021233Y016181D01*
X021391Y016115D01*
X021562Y016115D01*
X021720Y016181D01*
X021826Y016287D01*
X021933Y016181D01*
X022091Y016115D01*
X022262Y016115D01*
X022420Y016181D01*
X022541Y016302D01*
X022593Y016427D02*
X031276Y016427D01*
X031276Y016586D02*
X022606Y016586D01*
X022606Y016744D02*
X031276Y016744D01*
X031276Y016903D02*
X022606Y016903D01*
X022606Y017061D02*
X031276Y017061D01*
X031276Y017220D02*
X022569Y017220D01*
X022452Y017378D02*
X031276Y017378D01*
X031276Y017537D02*
X013694Y017537D01*
X013704Y017513D02*
X013620Y017715D01*
X013465Y017870D01*
X013263Y017954D01*
X013044Y017954D01*
X012842Y017870D01*
X012687Y017715D01*
X012604Y017513D01*
X012604Y017294D01*
X012641Y017204D01*
X012544Y017204D01*
X012342Y017120D01*
X012187Y016965D01*
X012104Y016763D01*
X012104Y016544D01*
X012187Y016342D01*
X012342Y016187D01*
X012544Y016104D01*
X012763Y016104D01*
X012965Y016187D01*
X013120Y016342D01*
X013154Y016424D01*
X013183Y016365D01*
X013234Y016295D01*
X013295Y016234D01*
X013365Y016183D01*
X013443Y016144D01*
X013525Y016117D01*
X013610Y016104D01*
X013654Y016104D01*
X013697Y016104D01*
X013782Y016117D01*
X013865Y016144D01*
X013942Y016183D01*
X014012Y016234D01*
X014073Y016295D01*
X014124Y016365D01*
X014163Y016443D01*
X014190Y016525D01*
X014204Y016610D01*
X014204Y016654D01*
X014204Y016697D01*
X014190Y016782D01*
X014163Y016865D01*
X014124Y016942D01*
X014073Y017012D01*
X014012Y017073D01*
X013942Y017124D01*
X013865Y017163D01*
X013782Y017190D01*
X013697Y017204D01*
X013666Y017204D01*
X013704Y017294D01*
X013704Y017513D01*
X013704Y017378D02*
X019801Y017378D01*
X019683Y017220D02*
X013673Y017220D01*
X014024Y017061D02*
X019646Y017061D01*
X019646Y016903D02*
X014144Y016903D01*
X014196Y016744D02*
X019646Y016744D01*
X019646Y016586D02*
X014200Y016586D01*
X014204Y016654D02*
X013654Y016654D01*
X014204Y016654D01*
X014155Y016427D02*
X019660Y016427D01*
X019745Y016269D02*
X014046Y016269D01*
X013737Y016110D02*
X027881Y016110D01*
X027722Y015952D02*
X000740Y015952D01*
X000740Y016110D02*
X012529Y016110D01*
X012778Y016110D02*
X013570Y016110D01*
X013654Y016110D02*
X013654Y016110D01*
X013654Y016104D02*
X013654Y016654D01*
X013654Y016654D01*
X013654Y016654D01*
X013654Y016104D01*
X013654Y016269D02*
X013654Y016269D01*
X013654Y016427D02*
X013654Y016427D01*
X013654Y016586D02*
X013654Y016586D01*
X013261Y016269D02*
X013046Y016269D01*
X012261Y016269D02*
X005458Y016269D01*
X005365Y016230D02*
X005560Y016311D01*
X005709Y016460D01*
X005790Y016655D01*
X005790Y016865D01*
X005709Y017060D01*
X005560Y017209D01*
X005365Y017290D01*
X005155Y017290D01*
X004960Y017209D01*
X004811Y017060D01*
X004730Y016865D01*
X004730Y016655D01*
X004811Y016460D01*
X004960Y016311D01*
X005155Y016230D01*
X005365Y016230D01*
X005062Y016269D02*
X003463Y016269D01*
X003538Y016307D01*
X003605Y016356D01*
X003664Y016415D01*
X003713Y016482D01*
X003751Y016557D01*
X003777Y016636D01*
X003790Y016718D01*
X003790Y016760D01*
X003790Y016802D01*
X003777Y016884D01*
X003751Y016963D01*
X003713Y017038D01*
X003664Y017105D01*
X003605Y017164D01*
X003538Y017213D01*
X003463Y017251D01*
X003384Y017277D01*
X003302Y017290D01*
X003260Y017290D01*
X003260Y016760D01*
X003790Y016760D01*
X003260Y016760D01*
X003260Y016760D01*
X003260Y016760D01*
X003260Y016230D01*
X003302Y016230D01*
X003384Y016243D01*
X003463Y016269D01*
X003260Y016269D02*
X003260Y016269D01*
X003260Y016230D02*
X003260Y016760D01*
X003260Y016760D01*
X003260Y016760D01*
X002730Y016760D01*
X002730Y016802D01*
X002743Y016884D01*
X002769Y016963D01*
X002807Y017038D01*
X002856Y017105D01*
X002915Y017164D01*
X002982Y017213D01*
X003057Y017251D01*
X003136Y017277D01*
X003218Y017290D01*
X003260Y017290D01*
X003260Y016760D01*
X002730Y016760D01*
X002730Y016718D01*
X002743Y016636D01*
X002769Y016557D01*
X002807Y016482D01*
X002856Y016415D01*
X002915Y016356D01*
X002982Y016307D01*
X003057Y016269D01*
X003136Y016243D01*
X003218Y016230D01*
X003260Y016230D01*
X003260Y016427D02*
X003260Y016427D01*
X003260Y016586D02*
X003260Y016586D01*
X003260Y016744D02*
X003260Y016744D01*
X003260Y016903D02*
X003260Y016903D01*
X003260Y017061D02*
X003260Y017061D01*
X003260Y017220D02*
X003260Y017220D01*
X002994Y017220D02*
X000740Y017220D01*
X000740Y017378D02*
X007908Y017378D01*
X007822Y017291D02*
X007822Y016927D01*
X008080Y016669D01*
X008444Y016669D01*
X008702Y016927D01*
X008702Y017291D01*
X008444Y017549D01*
X008080Y017549D01*
X007822Y017291D01*
X007822Y017220D02*
X005536Y017220D01*
X005709Y017061D02*
X007822Y017061D01*
X007846Y016903D02*
X005775Y016903D01*
X005790Y016744D02*
X008005Y016744D01*
X008519Y016744D02*
X012104Y016744D01*
X012104Y016586D02*
X005761Y016586D01*
X005677Y016427D02*
X012152Y016427D01*
X012161Y016903D02*
X008677Y016903D01*
X008702Y017061D02*
X012283Y017061D01*
X012635Y017220D02*
X008702Y017220D01*
X008615Y017378D02*
X012604Y017378D01*
X012613Y017537D02*
X008457Y017537D01*
X008067Y017537D02*
X000740Y017537D01*
X000740Y017695D02*
X012679Y017695D01*
X012826Y017854D02*
X000740Y017854D01*
X000740Y018012D02*
X031276Y018012D01*
X031276Y017854D02*
X013482Y017854D01*
X013628Y017695D02*
X031276Y017695D01*
X031276Y018171D02*
X000740Y018171D01*
X000740Y018329D02*
X031276Y018329D01*
X031276Y018488D02*
X000740Y018488D01*
X000740Y018646D02*
X031276Y018646D01*
X031276Y018805D02*
X000740Y018805D01*
X000740Y018963D02*
X031276Y018963D01*
X031276Y019122D02*
X000740Y019122D01*
X000740Y019280D02*
X031276Y019280D01*
X031276Y019439D02*
X000740Y019439D01*
X000740Y019597D02*
X031276Y019597D01*
X031276Y019756D02*
X000740Y019756D01*
X000740Y019914D02*
X000771Y019914D01*
X001749Y019914D02*
X030267Y019914D01*
X030027Y020073D02*
X001989Y020073D01*
X002147Y020231D02*
X029869Y020231D01*
X029777Y020390D02*
X002239Y020390D01*
X002311Y020548D02*
X029705Y020548D01*
X029662Y020707D02*
X002354Y020707D01*
X002370Y020865D02*
X029646Y020865D01*
X029646Y021024D02*
X002370Y021024D01*
X002337Y021182D02*
X029679Y021182D01*
X029721Y021341D02*
X002295Y021341D01*
X003526Y017220D02*
X004984Y017220D01*
X004811Y017061D02*
X003696Y017061D01*
X003771Y016903D02*
X004745Y016903D01*
X004730Y016744D02*
X003790Y016744D01*
X003761Y016586D02*
X004759Y016586D01*
X004843Y016427D02*
X003673Y016427D01*
X003057Y016269D02*
X000740Y016269D01*
X000740Y016427D02*
X002847Y016427D01*
X002759Y016586D02*
X000740Y016586D01*
X000740Y016744D02*
X002730Y016744D01*
X002749Y016903D02*
X000740Y016903D01*
X000740Y017061D02*
X002824Y017061D01*
X000740Y015793D02*
X027596Y015793D01*
X027596Y015635D02*
X000740Y015635D01*
X000740Y014208D02*
X007822Y014208D01*
X007822Y014050D02*
X000740Y014050D01*
X000740Y013891D02*
X007858Y013891D01*
X008016Y013733D02*
X000740Y013733D01*
X000740Y013574D02*
X019084Y013574D01*
X019084Y013416D02*
X000740Y013416D01*
X000740Y013257D02*
X019133Y013257D01*
X019291Y013099D02*
X000740Y013099D01*
X000740Y011355D02*
X003698Y011355D01*
X003560Y011197D02*
X000740Y011197D01*
X000740Y011038D02*
X003494Y011038D01*
X003494Y010880D02*
X000740Y010880D01*
X000740Y010721D02*
X003538Y010721D01*
X003644Y010563D02*
X000740Y010563D01*
X000740Y008819D02*
X003721Y008819D01*
X003570Y008661D02*
X000740Y008661D01*
X000740Y008502D02*
X003504Y008502D01*
X003494Y008344D02*
X000740Y008344D01*
X000740Y008185D02*
X003528Y008185D01*
X003621Y008027D02*
X000740Y008027D01*
X000740Y005966D02*
X021583Y005966D01*
X021483Y005808D02*
X000740Y005808D01*
X000740Y005649D02*
X021436Y005649D01*
X021436Y005491D02*
X000740Y005491D01*
X000740Y005332D02*
X021490Y005332D01*
X021601Y005174D02*
X000740Y005174D01*
X004428Y008027D02*
X005392Y008027D01*
X005299Y008185D02*
X004520Y008185D01*
X004554Y008344D02*
X005266Y008344D01*
X005266Y008381D02*
X005787Y008381D01*
X005787Y008903D01*
X005754Y008903D01*
X005672Y008890D01*
X005592Y008864D01*
X005518Y008826D01*
X005450Y008777D01*
X005391Y008718D01*
X005342Y008650D01*
X005305Y008576D01*
X005279Y008497D01*
X005266Y008414D01*
X005266Y008381D01*
X005281Y008502D02*
X004544Y008502D01*
X004479Y008661D02*
X005350Y008661D01*
X005508Y008819D02*
X004327Y008819D01*
X005787Y008819D02*
X005804Y008819D01*
X005787Y008661D02*
X005804Y008661D01*
X005787Y008502D02*
X005804Y008502D01*
X005787Y008344D02*
X005804Y008344D01*
X005787Y008185D02*
X005804Y008185D01*
X005787Y008027D02*
X005804Y008027D01*
X005787Y010563D02*
X005804Y010563D01*
X005787Y010721D02*
X005804Y010721D01*
X005787Y010880D02*
X005804Y010880D01*
X005787Y011038D02*
X005804Y011038D01*
X005787Y011197D02*
X005804Y011197D01*
X005787Y011355D02*
X005804Y011355D01*
X005477Y011355D02*
X004350Y011355D01*
X004488Y011197D02*
X005336Y011197D01*
X005276Y011038D02*
X004554Y011038D01*
X004554Y010880D02*
X005267Y010880D01*
X005308Y010721D02*
X004511Y010721D01*
X004404Y010563D02*
X005415Y010563D01*
X010138Y010563D02*
X019084Y010563D01*
X019134Y010721D02*
X010296Y010721D01*
X012397Y010246D02*
X013005Y010246D01*
X012888Y010087D02*
X012513Y010087D01*
X012561Y009929D02*
X012841Y009929D01*
X012841Y009770D02*
X012561Y009770D01*
X012495Y009612D02*
X012906Y009612D01*
X013047Y009453D02*
X012355Y009453D01*
X013285Y005015D02*
X013325Y005015D01*
X013325Y004857D02*
X013285Y004857D01*
X013285Y004698D02*
X013325Y004698D01*
X013325Y004540D02*
X013285Y004540D01*
X013285Y004223D02*
X013325Y004223D01*
X013325Y004064D02*
X013285Y004064D01*
X013285Y003906D02*
X013325Y003906D01*
X013325Y003747D02*
X013285Y003747D01*
X012963Y003747D02*
X012647Y003747D01*
X012751Y003906D02*
X012858Y003906D01*
X012825Y004064D02*
X012785Y004064D01*
X012785Y004223D02*
X012825Y004223D01*
X021532Y010087D02*
X022878Y010087D01*
X022719Y010246D02*
X021691Y010246D01*
X021751Y010404D02*
X022659Y010404D01*
X022659Y010563D02*
X021751Y010563D01*
X021701Y010721D02*
X022709Y010721D01*
X022868Y010880D02*
X021542Y010880D01*
X021493Y013048D02*
X021129Y013048D01*
X020871Y013306D01*
X020871Y013671D01*
X021129Y013928D01*
X021493Y013928D01*
X021751Y013671D01*
X021751Y013306D01*
X021493Y013048D01*
X021544Y013099D02*
X022866Y013099D01*
X022708Y013257D02*
X021702Y013257D01*
X021751Y013416D02*
X022659Y013416D01*
X022659Y013574D02*
X021751Y013574D01*
X021689Y013733D02*
X022721Y013733D01*
X022879Y013891D02*
X021531Y013891D01*
X021092Y013891D02*
X019743Y013891D01*
X019902Y013733D02*
X020933Y013733D01*
X020871Y013574D02*
X019964Y013574D01*
X019964Y013416D02*
X020871Y013416D01*
X020920Y013257D02*
X019915Y013257D01*
X019756Y013099D02*
X021079Y013099D01*
X021106Y016269D02*
X021145Y016269D01*
X020776Y016269D02*
X020776Y016269D01*
X020776Y016427D02*
X020776Y016427D01*
X020776Y016586D02*
X020776Y016586D01*
X020776Y016744D02*
X020776Y016744D01*
X020776Y016795D02*
X020776Y017475D01*
X020776Y016795D01*
X020776Y016795D01*
X020776Y016903D02*
X020776Y016903D01*
X020776Y017061D02*
X020776Y017061D01*
X020776Y017220D02*
X020776Y017220D01*
X020776Y017378D02*
X020776Y017378D01*
X020502Y017378D02*
X020352Y017378D01*
X021050Y017378D02*
X021201Y017378D01*
X021752Y017378D02*
X021901Y017378D01*
X021845Y016269D02*
X021807Y016269D01*
X020446Y016269D02*
X020407Y016269D01*
X028352Y011989D02*
X028861Y011989D01*
X028702Y012148D02*
X028510Y012148D01*
X029106Y012148D02*
X029106Y012148D01*
X029106Y012306D02*
X029106Y012306D01*
X029106Y012465D02*
X029106Y012465D01*
X029106Y012623D02*
X029106Y012623D01*
X029106Y011989D02*
X029106Y011989D01*
X029106Y015159D02*
X029106Y015159D01*
X031245Y019914D02*
X031276Y019914D01*
D19*
X030575Y019551D03*
X029000Y020732D03*
X027819Y020732D03*
X026638Y020732D03*
X030575Y018370D03*
X030575Y017189D03*
X023016Y008725D03*
X030575Y005378D03*
X030575Y004197D03*
X030575Y003016D03*
X029000Y001441D03*
X027819Y001441D03*
X026638Y001441D03*
X014354Y003606D03*
X014354Y005181D03*
X009630Y002819D03*
X008055Y002819D03*
X006480Y002819D03*
X004984Y001047D03*
X003803Y001047D03*
X002622Y001047D03*
X001047Y002622D03*
X001047Y003803D03*
X001047Y004984D03*
X001047Y016795D03*
X001047Y017977D03*
X001047Y019158D03*
X003016Y020732D03*
X004197Y020732D03*
X005378Y020732D03*
M02*
