G75*
G70*
%OFA0B0*%
%FSLAX24Y24*%
%IPPOS*%
%LPD*%
%AMOC8*
5,1,8,0,0,1.08239X$1,22.5*
%
%ADD10C,0.0060*%
%ADD11C,0.0600*%
%ADD12OC8,0.0520*%
%ADD13C,0.0660*%
%ADD14C,0.0700*%
%ADD15C,0.0800*%
%ADD16C,0.0740*%
%ADD17OC8,0.0660*%
%ADD18C,0.0500*%
%ADD19C,0.0320*%
%ADD20C,0.0400*%
%ADD21C,0.0396*%
D10*
X024835Y018908D02*
X024918Y018908D01*
X024918Y018991D01*
X024835Y018991D01*
X024835Y018908D01*
X024835Y019158D02*
X024918Y019158D01*
X024918Y019241D01*
X024835Y019241D01*
X024835Y019158D01*
X025100Y019158D02*
X025100Y019074D01*
X025434Y019074D01*
X025434Y018991D02*
X025434Y019158D01*
X025350Y019241D01*
X025184Y019241D01*
X025100Y019158D01*
X025184Y018908D02*
X025350Y018908D01*
X025434Y018991D01*
X025616Y018908D02*
X025616Y019158D01*
X025699Y019241D01*
X025783Y019158D01*
X025783Y018908D01*
X025949Y018908D02*
X025949Y019241D01*
X025866Y019241D01*
X025783Y019158D01*
X026131Y019158D02*
X026131Y018908D01*
X026382Y018908D01*
X026465Y018991D01*
X026382Y019074D01*
X026131Y019074D01*
X026131Y019158D02*
X026215Y019241D01*
X026382Y019241D01*
X026647Y019408D02*
X026647Y018908D01*
X026981Y019408D01*
X026981Y018908D01*
D11*
X013305Y004684D02*
X013305Y004084D01*
X012305Y004084D02*
X012305Y004684D01*
X011305Y004684D02*
X011305Y004084D01*
X010305Y004084D02*
X010305Y004684D01*
X009305Y004684D02*
X009305Y004084D01*
X008305Y004084D02*
X008305Y004684D01*
X007305Y004684D02*
X007305Y004084D01*
X006305Y004084D02*
X006305Y004684D01*
X005305Y004684D02*
X005305Y004084D01*
X004305Y004084D02*
X004305Y004684D01*
D12*
X009866Y007914D03*
X009866Y010914D03*
X008262Y014109D03*
X012154Y014016D03*
X014154Y014016D03*
X019524Y013488D03*
X021311Y013488D03*
X023099Y013488D03*
X023099Y010488D03*
X021311Y010488D03*
X019524Y010488D03*
X008262Y017109D03*
D13*
X012051Y009870D03*
X013351Y009870D03*
D14*
X005796Y010932D03*
X004024Y010932D03*
X004024Y008373D03*
X005796Y008373D03*
X004260Y014940D03*
X003260Y016760D03*
X005260Y016760D03*
D15*
X022016Y005579D03*
X025016Y005579D03*
D16*
X013654Y016654D03*
X013154Y017404D03*
X012654Y016654D03*
D17*
X028106Y015614D03*
X029106Y015614D03*
X029106Y012465D03*
X028106Y012465D03*
X028106Y009315D03*
X029106Y009315D03*
D18*
X022176Y016545D02*
X022176Y017045D01*
X021476Y017045D02*
X021476Y016545D01*
X020776Y016545D02*
X020776Y017045D01*
X020076Y017045D02*
X020076Y016545D01*
D19*
X002450Y001103D02*
X002374Y000820D01*
X029654Y000820D01*
X029578Y001103D01*
X029578Y001417D01*
X029659Y001719D01*
X029816Y001991D01*
X030037Y002212D01*
X030309Y002369D01*
X030611Y002450D01*
X030925Y002450D01*
X031196Y002377D01*
X031196Y019800D01*
X030913Y019724D01*
X030599Y019724D01*
X030297Y019805D01*
X030025Y019961D01*
X029804Y020183D01*
X029647Y020454D01*
X029566Y020757D01*
X029566Y021070D01*
X029642Y021354D01*
X002374Y021354D01*
X002450Y021070D01*
X002450Y020757D01*
X002369Y020454D01*
X002212Y020183D01*
X001991Y019961D01*
X001719Y019805D01*
X001417Y019724D01*
X001103Y019724D01*
X000820Y019800D01*
X000820Y002374D01*
X001103Y002450D01*
X001417Y002450D01*
X001719Y002369D01*
X001991Y002212D01*
X002212Y001991D01*
X002369Y001719D01*
X002450Y001417D01*
X002450Y001103D01*
X002450Y001216D02*
X029578Y001216D01*
X029609Y001534D02*
X002418Y001534D01*
X002292Y001853D02*
X029736Y001853D01*
X029996Y002171D02*
X021239Y002171D01*
X021218Y002162D02*
X021387Y002232D01*
X023749Y004594D01*
X023878Y004724D01*
X023948Y004893D01*
X023948Y006369D01*
X024536Y006957D01*
X024666Y007086D01*
X024736Y007255D01*
X024736Y011375D01*
X024666Y011544D01*
X023878Y012332D01*
X023749Y012461D01*
X023580Y012531D01*
X014735Y012531D01*
X014566Y012461D01*
X013421Y011315D01*
X012491Y012245D01*
X012491Y013596D01*
X013312Y013596D01*
X013466Y013660D01*
X013634Y013827D01*
X013634Y013801D01*
X013938Y013496D01*
X014154Y013496D01*
X014369Y013496D01*
X014674Y013801D01*
X014674Y014016D01*
X014674Y014231D01*
X014369Y014536D01*
X014342Y014536D01*
X015852Y016046D01*
X015970Y016164D01*
X016034Y016318D01*
X016034Y017666D01*
X015970Y017821D01*
X014396Y019396D01*
X014277Y019514D01*
X014123Y019578D01*
X010227Y019578D01*
X010072Y019514D01*
X008188Y017629D01*
X008046Y017629D01*
X008026Y017609D01*
X005688Y017609D01*
X005534Y017545D01*
X005416Y017427D01*
X005359Y017370D01*
X005139Y017370D01*
X004914Y017277D01*
X004743Y017106D01*
X004650Y016881D01*
X004650Y016639D01*
X004743Y016414D01*
X004914Y016243D01*
X005139Y016150D01*
X005381Y016150D01*
X005606Y016243D01*
X005777Y016414D01*
X005870Y016639D01*
X005870Y016693D01*
X005946Y016769D01*
X007866Y016769D01*
X008046Y016589D01*
X008477Y016589D01*
X008782Y016894D01*
X008782Y017035D01*
X010484Y018738D01*
X013866Y018738D01*
X015194Y017409D01*
X015194Y016576D01*
X013055Y014436D01*
X012574Y014436D01*
X012574Y015980D01*
X012618Y016024D01*
X012779Y016024D01*
X013011Y016120D01*
X013157Y016266D01*
X013173Y016243D01*
X013243Y016173D01*
X013324Y016115D01*
X013412Y016070D01*
X013506Y016039D01*
X013604Y016024D01*
X013654Y016024D01*
X013703Y016024D01*
X013801Y016039D01*
X013896Y016070D01*
X013984Y016115D01*
X014064Y016173D01*
X014134Y016243D01*
X014193Y016324D01*
X014238Y016412D01*
X014268Y016506D01*
X014284Y016604D01*
X014284Y016654D01*
X014284Y016703D01*
X014268Y016801D01*
X014238Y016896D01*
X014193Y016984D01*
X014134Y017064D01*
X014064Y017134D01*
X013984Y017193D01*
X013896Y017238D01*
X013801Y017268D01*
X013781Y017271D01*
X013784Y017278D01*
X013784Y017529D01*
X013688Y017761D01*
X013511Y017938D01*
X013279Y018034D01*
X013118Y018034D01*
X012937Y018214D01*
X012819Y018333D01*
X012664Y018397D01*
X010806Y018397D01*
X010652Y018333D01*
X009077Y016758D01*
X008959Y016640D01*
X008895Y016485D01*
X008895Y012245D01*
X006715Y010065D01*
X006597Y009947D01*
X006533Y009792D01*
X006533Y006733D01*
X006067Y006267D01*
X005949Y006149D01*
X005885Y005995D01*
X005885Y005056D01*
X005830Y005001D01*
X005805Y004940D01*
X005780Y005001D01*
X005622Y005158D01*
X005416Y005244D01*
X005193Y005244D01*
X004988Y005158D01*
X004830Y005001D01*
X004805Y004940D01*
X004780Y005001D01*
X004622Y005158D01*
X004444Y005232D01*
X004444Y007930D01*
X004541Y008027D01*
X004634Y008251D01*
X004634Y008494D01*
X004541Y008718D01*
X004444Y008815D01*
X004444Y010489D01*
X004541Y010586D01*
X004634Y010810D01*
X004634Y011053D01*
X004541Y011277D01*
X004444Y011374D01*
X004444Y011724D01*
X004765Y012045D01*
X006701Y012045D01*
X006855Y012109D01*
X006973Y012227D01*
X008336Y013589D01*
X008477Y013589D01*
X008782Y013894D01*
X008782Y014325D01*
X008477Y014629D01*
X008046Y014629D01*
X007742Y014325D01*
X007742Y014183D01*
X006443Y012885D01*
X004507Y012885D01*
X004353Y012821D01*
X003786Y012254D01*
X003668Y012136D01*
X003604Y011982D01*
X003604Y011374D01*
X003507Y011277D01*
X003414Y011053D01*
X003414Y010810D01*
X003507Y010586D01*
X003604Y010489D01*
X003604Y008815D01*
X003507Y008718D01*
X003414Y008494D01*
X003414Y008251D01*
X003507Y008027D01*
X003604Y007930D01*
X003604Y004581D01*
X003668Y004426D01*
X003745Y004350D01*
X003745Y003972D01*
X003830Y003766D01*
X003988Y003609D01*
X004193Y003524D01*
X004416Y003524D01*
X004622Y003609D01*
X004780Y003766D01*
X004805Y003827D01*
X004830Y003766D01*
X004885Y003712D01*
X004885Y003510D01*
X004417Y003042D01*
X003190Y003042D01*
X003042Y003190D01*
X003042Y013128D01*
X004244Y014330D01*
X004381Y014330D01*
X004606Y014423D01*
X004777Y014594D01*
X004870Y014819D01*
X004870Y015061D01*
X004777Y015286D01*
X004606Y015457D01*
X004381Y015550D01*
X004139Y015550D01*
X003914Y015457D01*
X003743Y015286D01*
X003650Y015061D01*
X003650Y014924D01*
X002384Y013658D01*
X002266Y013540D01*
X002202Y013386D01*
X002202Y002932D01*
X002266Y002778D01*
X002660Y002384D01*
X002778Y002266D01*
X002932Y002202D01*
X004674Y002202D01*
X004829Y002266D01*
X005543Y002980D01*
X005661Y003098D01*
X005725Y003253D01*
X005725Y003712D01*
X005780Y003766D01*
X005805Y003827D01*
X005830Y003766D01*
X005988Y003609D01*
X006193Y003524D01*
X006416Y003524D01*
X006622Y003609D01*
X006780Y003766D01*
X006805Y003827D01*
X006830Y003766D01*
X006988Y003609D01*
X007193Y003524D01*
X007416Y003524D01*
X007622Y003609D01*
X007780Y003766D01*
X007805Y003827D01*
X007830Y003766D01*
X007988Y003609D01*
X008193Y003524D01*
X008416Y003524D01*
X008622Y003609D01*
X008780Y003766D01*
X008805Y003827D01*
X008830Y003766D01*
X008988Y003609D01*
X009193Y003524D01*
X009416Y003524D01*
X009622Y003609D01*
X009780Y003766D01*
X009805Y003827D01*
X009830Y003766D01*
X009988Y003609D01*
X010193Y003524D01*
X010416Y003524D01*
X010622Y003609D01*
X010780Y003766D01*
X010805Y003827D01*
X010830Y003766D01*
X010988Y003609D01*
X011193Y003524D01*
X011416Y003524D01*
X011622Y003609D01*
X011780Y003766D01*
X011805Y003827D01*
X011830Y003766D01*
X011845Y003752D01*
X011845Y003478D01*
X011915Y003309D01*
X012862Y002362D01*
X012992Y002232D01*
X013161Y002162D01*
X021218Y002162D01*
X021644Y002490D02*
X031196Y002490D01*
X031196Y002808D02*
X021962Y002808D01*
X022281Y003127D02*
X031196Y003127D01*
X031196Y003445D02*
X022599Y003445D01*
X022918Y003764D02*
X031196Y003764D01*
X031196Y004082D02*
X023236Y004082D01*
X023555Y004401D02*
X031196Y004401D01*
X031196Y004719D02*
X023873Y004719D01*
X023948Y005038D02*
X024637Y005038D01*
X024648Y005029D02*
X024723Y004986D01*
X024803Y004953D01*
X024887Y004930D01*
X024973Y004919D01*
X025016Y004919D01*
X025059Y004919D01*
X025145Y004930D01*
X025229Y004953D01*
X025308Y004986D01*
X025383Y005029D01*
X025452Y005082D01*
X025513Y005143D01*
X025566Y005211D01*
X025609Y005286D01*
X025642Y005366D01*
X025665Y005450D01*
X025676Y005536D01*
X025676Y005579D01*
X025676Y005622D01*
X025665Y005708D01*
X025642Y005792D01*
X025609Y005871D01*
X025566Y005946D01*
X025513Y006015D01*
X025452Y006076D01*
X025383Y006129D01*
X025308Y006172D01*
X025229Y006205D01*
X025145Y006228D01*
X025059Y006239D01*
X025016Y006239D01*
X025016Y005579D01*
X025676Y005579D01*
X025016Y005579D01*
X025016Y005579D01*
X025016Y005579D01*
X025016Y006239D01*
X024973Y006239D01*
X024887Y006228D01*
X024803Y006205D01*
X024723Y006172D01*
X024648Y006129D01*
X024580Y006076D01*
X024519Y006015D01*
X024466Y005946D01*
X024423Y005871D01*
X024390Y005792D01*
X024367Y005708D01*
X024356Y005622D01*
X024356Y005579D01*
X025016Y005579D01*
X025016Y005579D01*
X025016Y004919D01*
X025016Y005579D01*
X025016Y005579D01*
X024356Y005579D01*
X024356Y005536D01*
X024367Y005450D01*
X024390Y005366D01*
X024423Y005286D01*
X024466Y005211D01*
X024519Y005143D01*
X024580Y005082D01*
X024648Y005029D01*
X025016Y005038D02*
X025016Y005038D01*
X025395Y005038D02*
X031196Y005038D01*
X031196Y005356D02*
X025638Y005356D01*
X025669Y005675D02*
X031196Y005675D01*
X031196Y005993D02*
X025530Y005993D01*
X025016Y005993D02*
X025016Y005993D01*
X025016Y005675D02*
X025016Y005675D01*
X025016Y005356D02*
X025016Y005356D01*
X024394Y005356D02*
X023948Y005356D01*
X023948Y005675D02*
X024363Y005675D01*
X024502Y005993D02*
X023948Y005993D01*
X023948Y006312D02*
X031196Y006312D01*
X031196Y006630D02*
X024210Y006630D01*
X024528Y006949D02*
X031196Y006949D01*
X031196Y007267D02*
X024736Y007267D01*
X024736Y007586D02*
X031196Y007586D01*
X031196Y007904D02*
X024736Y007904D01*
X024736Y008223D02*
X031196Y008223D01*
X031196Y008541D02*
X024736Y008541D01*
X024736Y008860D02*
X027728Y008860D01*
X027862Y008725D02*
X027516Y009071D01*
X027516Y009311D01*
X023759Y013068D01*
X023414Y013068D01*
X023314Y012968D01*
X022883Y012968D01*
X022579Y013273D01*
X022579Y013414D01*
X021820Y014173D01*
X021756Y014327D01*
X021756Y015650D01*
X021731Y015625D01*
X021731Y013804D01*
X021831Y013704D01*
X021831Y013273D01*
X021527Y012968D01*
X021096Y012968D01*
X020791Y013273D01*
X020791Y013704D01*
X020891Y013804D01*
X020891Y015883D01*
X020955Y016037D01*
X021010Y016092D01*
X020972Y016073D01*
X020896Y016048D01*
X020816Y016035D01*
X020776Y016035D01*
X020776Y016795D01*
X020776Y016795D01*
X020776Y016035D01*
X020736Y016035D01*
X020657Y016048D01*
X020580Y016073D01*
X020509Y016109D01*
X020444Y016156D01*
X020426Y016174D01*
X020365Y016113D01*
X020178Y016035D01*
X019975Y016035D01*
X019944Y016048D01*
X019944Y013804D01*
X020044Y013704D01*
X020044Y013273D01*
X019739Y012968D01*
X019308Y012968D01*
X019004Y013273D01*
X019004Y013704D01*
X019104Y013804D01*
X019104Y016327D01*
X019168Y016481D01*
X019566Y016879D01*
X019566Y017147D01*
X019644Y017334D01*
X019656Y017347D01*
X019656Y017797D01*
X019720Y017952D01*
X020376Y018608D01*
X020495Y018726D01*
X020649Y018790D01*
X024508Y018790D01*
X024508Y019544D01*
X024547Y019640D01*
X024621Y019713D01*
X024716Y019752D01*
X027103Y019752D01*
X027199Y019713D01*
X027272Y019640D01*
X027311Y019544D01*
X027311Y018771D01*
X027272Y018676D01*
X027199Y018603D01*
X027103Y018563D01*
X025752Y018563D01*
X028110Y016204D01*
X028351Y016204D01*
X028606Y015949D01*
X028862Y016204D01*
X029106Y016204D01*
X029106Y015614D01*
X029106Y015614D01*
X029106Y015024D01*
X028862Y015024D01*
X028606Y015280D01*
X028351Y015024D01*
X027862Y015024D01*
X027516Y015370D01*
X027516Y015610D01*
X025177Y017950D01*
X024109Y017950D01*
X028344Y013714D01*
X028344Y013714D01*
X028463Y013596D01*
X028526Y013442D01*
X028526Y012879D01*
X028606Y012799D01*
X028862Y013055D01*
X029106Y013055D01*
X029106Y012465D01*
X029106Y012465D01*
X029106Y013055D01*
X029351Y013055D01*
X029696Y012709D01*
X029696Y012465D01*
X029106Y012465D01*
X029106Y012465D01*
X029106Y011875D01*
X028862Y011875D01*
X028606Y012130D01*
X028351Y011875D01*
X027862Y011875D01*
X027516Y012220D01*
X027516Y012709D01*
X027686Y012879D01*
X027686Y013184D01*
X023511Y017360D01*
X022583Y017360D01*
X022608Y017334D01*
X022686Y017147D01*
X022686Y016444D01*
X022608Y016257D01*
X022596Y016244D01*
X022596Y014585D01*
X023173Y014008D01*
X023314Y014008D01*
X023414Y013908D01*
X024017Y013908D01*
X024171Y013844D01*
X028110Y009905D01*
X028351Y009905D01*
X028606Y009650D01*
X028862Y009905D01*
X029106Y009905D01*
X029106Y009315D01*
X029106Y009315D01*
X029106Y008725D01*
X028862Y008725D01*
X028606Y008981D01*
X028351Y008725D01*
X027862Y008725D01*
X028485Y008860D02*
X028728Y008860D01*
X029106Y008860D02*
X029106Y008860D01*
X029106Y008725D02*
X029351Y008725D01*
X029696Y009071D01*
X029696Y009315D01*
X029106Y009315D01*
X029106Y009315D01*
X029106Y008725D01*
X029485Y008860D02*
X031196Y008860D01*
X031196Y009178D02*
X029696Y009178D01*
X029696Y009315D02*
X029696Y009560D01*
X029351Y009905D01*
X029106Y009905D01*
X029106Y009315D01*
X029106Y009315D01*
X029696Y009315D01*
X029696Y009497D02*
X031196Y009497D01*
X031196Y009815D02*
X029441Y009815D01*
X029106Y009815D02*
X029106Y009815D01*
X028772Y009815D02*
X028441Y009815D01*
X027882Y010134D02*
X031196Y010134D01*
X031196Y010452D02*
X027564Y010452D01*
X027245Y010771D02*
X031196Y010771D01*
X031196Y011089D02*
X026927Y011089D01*
X026608Y011408D02*
X031196Y011408D01*
X031196Y011726D02*
X026290Y011726D01*
X025971Y012045D02*
X027692Y012045D01*
X027516Y012363D02*
X025653Y012363D01*
X025334Y012682D02*
X027516Y012682D01*
X027686Y013000D02*
X025016Y013000D01*
X024697Y013319D02*
X027552Y013319D01*
X027234Y013637D02*
X024379Y013637D01*
X023933Y013488D02*
X028106Y009315D01*
X027516Y009178D02*
X024736Y009178D01*
X024736Y009497D02*
X027331Y009497D01*
X027013Y009815D02*
X024736Y009815D01*
X024736Y010134D02*
X026694Y010134D01*
X026376Y010452D02*
X024736Y010452D01*
X024736Y010771D02*
X026057Y010771D01*
X025739Y011089D02*
X024736Y011089D01*
X024722Y011408D02*
X025420Y011408D01*
X025102Y011726D02*
X024484Y011726D01*
X024783Y012045D02*
X024165Y012045D01*
X024465Y012363D02*
X023847Y012363D01*
X024146Y012682D02*
X012491Y012682D01*
X012491Y013000D02*
X019277Y013000D01*
X019771Y013000D02*
X021064Y013000D01*
X020791Y013319D02*
X020044Y013319D01*
X020044Y013637D02*
X020791Y013637D01*
X020891Y013956D02*
X019944Y013956D01*
X019944Y014274D02*
X020891Y014274D01*
X020891Y014593D02*
X019944Y014593D01*
X019944Y014911D02*
X020891Y014911D01*
X020891Y015230D02*
X019944Y015230D01*
X019944Y015548D02*
X020891Y015548D01*
X020891Y015867D02*
X019944Y015867D01*
X019524Y016243D02*
X020076Y016795D01*
X020076Y017714D01*
X020732Y018370D01*
X025351Y018370D01*
X028106Y015614D01*
X027657Y015230D02*
X026829Y015230D01*
X027148Y014911D02*
X031196Y014911D01*
X031196Y015230D02*
X029556Y015230D01*
X029696Y015370D02*
X029351Y015024D01*
X029106Y015024D01*
X029106Y015614D01*
X029106Y015614D01*
X029106Y015614D01*
X029696Y015614D01*
X029696Y015370D01*
X029696Y015548D02*
X031196Y015548D01*
X031196Y015867D02*
X029689Y015867D01*
X029696Y015859D02*
X029351Y016204D01*
X029106Y016204D01*
X029106Y015614D01*
X029696Y015614D01*
X029696Y015859D01*
X029370Y016185D02*
X031196Y016185D01*
X031196Y016504D02*
X027811Y016504D01*
X027493Y016822D02*
X031196Y016822D01*
X031196Y017141D02*
X027174Y017141D01*
X026856Y017459D02*
X031196Y017459D01*
X031196Y017778D02*
X026537Y017778D01*
X026219Y018096D02*
X031196Y018096D01*
X031196Y018415D02*
X025900Y018415D01*
X025349Y017778D02*
X024281Y017778D01*
X024600Y017459D02*
X025668Y017459D01*
X025986Y017141D02*
X024918Y017141D01*
X025237Y016822D02*
X026305Y016822D01*
X026623Y016504D02*
X025555Y016504D01*
X025874Y016185D02*
X026942Y016185D01*
X027260Y015867D02*
X026192Y015867D01*
X026511Y015548D02*
X027516Y015548D01*
X028370Y016185D02*
X028843Y016185D01*
X029106Y016185D02*
X029106Y016185D01*
X029106Y015867D02*
X029106Y015867D01*
X029106Y015548D02*
X029106Y015548D01*
X029106Y015230D02*
X029106Y015230D01*
X028657Y015230D02*
X028556Y015230D01*
X027785Y014274D02*
X031196Y014274D01*
X031196Y014593D02*
X027466Y014593D01*
X026597Y014274D02*
X022907Y014274D01*
X022596Y014593D02*
X026278Y014593D01*
X025960Y014911D02*
X022596Y014911D01*
X022596Y015230D02*
X025641Y015230D01*
X025323Y015548D02*
X022596Y015548D01*
X022596Y015867D02*
X025004Y015867D01*
X024686Y016185D02*
X022596Y016185D01*
X022686Y016504D02*
X024367Y016504D01*
X024049Y016822D02*
X022686Y016822D01*
X022176Y016795D02*
X022176Y014411D01*
X023099Y013488D01*
X023933Y013488D01*
X023828Y013000D02*
X023346Y013000D01*
X022852Y013000D02*
X021558Y013000D01*
X021831Y013319D02*
X022579Y013319D01*
X022356Y013637D02*
X021831Y013637D01*
X021731Y013956D02*
X022037Y013956D01*
X021778Y014274D02*
X021731Y014274D01*
X021731Y014593D02*
X021756Y014593D01*
X021731Y014911D02*
X021756Y014911D01*
X021731Y015230D02*
X021756Y015230D01*
X021731Y015548D02*
X021756Y015548D01*
X021311Y015799D02*
X021520Y016008D01*
X021520Y016752D01*
X021476Y016795D01*
X021520Y016839D01*
X021520Y017583D01*
X021717Y017780D01*
X023685Y017780D01*
X028106Y013358D01*
X028106Y012465D01*
X028521Y012045D02*
X028692Y012045D01*
X029106Y012045D02*
X029106Y012045D01*
X029106Y011875D02*
X029351Y011875D01*
X029696Y012220D01*
X029696Y012465D01*
X029106Y012465D01*
X029106Y012465D01*
X029106Y011875D01*
X029521Y012045D02*
X031196Y012045D01*
X031196Y012363D02*
X029696Y012363D01*
X029696Y012682D02*
X031196Y012682D01*
X031196Y013000D02*
X029406Y013000D01*
X029106Y013000D02*
X029106Y013000D01*
X028807Y013000D02*
X028526Y013000D01*
X029106Y012682D02*
X029106Y012682D01*
X029106Y012363D02*
X029106Y012363D01*
X028526Y013319D02*
X031196Y013319D01*
X031196Y013637D02*
X028422Y013637D01*
X028103Y013956D02*
X031196Y013956D01*
X026915Y013956D02*
X023367Y013956D01*
X021311Y013488D02*
X021311Y015799D01*
X020776Y016185D02*
X020776Y016185D01*
X020776Y016504D02*
X020776Y016504D01*
X020776Y016795D02*
X020776Y017555D01*
X020736Y017555D01*
X020657Y017543D01*
X020580Y017518D01*
X020509Y017482D01*
X020496Y017472D01*
X020496Y017540D01*
X020906Y017950D01*
X021293Y017950D01*
X021282Y017939D01*
X021282Y017939D01*
X021164Y017821D01*
X021100Y017666D01*
X021100Y017441D01*
X021043Y017482D01*
X020972Y017518D01*
X020896Y017543D01*
X020816Y017555D01*
X020776Y017555D01*
X020776Y016795D01*
X020776Y016795D01*
X020776Y016822D02*
X020776Y016822D01*
X020776Y017141D02*
X020776Y017141D01*
X020776Y017459D02*
X020776Y017459D01*
X021075Y017459D02*
X021100Y017459D01*
X021146Y017778D02*
X020734Y017778D01*
X019864Y018096D02*
X015695Y018096D01*
X015988Y017778D02*
X019656Y017778D01*
X019656Y017459D02*
X016034Y017459D01*
X016034Y017141D02*
X019566Y017141D01*
X019509Y016822D02*
X016034Y016822D01*
X016034Y016504D02*
X019190Y016504D01*
X019524Y016243D02*
X019524Y013488D01*
X019004Y013637D02*
X014510Y013637D01*
X014154Y013637D02*
X014154Y013637D01*
X014154Y013496D02*
X014154Y014016D01*
X014674Y014016D01*
X014154Y014016D01*
X014154Y014016D01*
X014154Y014016D01*
X014154Y013496D01*
X013797Y013637D02*
X013411Y013637D01*
X013229Y014016D02*
X015614Y016402D01*
X015614Y017583D01*
X014040Y019158D01*
X010310Y019158D01*
X008262Y017109D01*
X008134Y017189D01*
X005772Y017189D01*
X005378Y016795D01*
X005260Y016760D01*
X005814Y016504D02*
X008903Y016504D01*
X008710Y016822D02*
X009141Y016822D01*
X008887Y017141D02*
X009460Y017141D01*
X009206Y017459D02*
X009778Y017459D01*
X009524Y017778D02*
X010097Y017778D01*
X009843Y018096D02*
X010415Y018096D01*
X010161Y018415D02*
X014189Y018415D01*
X013870Y018733D02*
X010480Y018733D01*
X009610Y019052D02*
X000820Y019052D01*
X000820Y018733D02*
X009292Y018733D01*
X008973Y018415D02*
X000820Y018415D01*
X000820Y018096D02*
X008655Y018096D01*
X008336Y017778D02*
X000820Y017778D01*
X000820Y017459D02*
X005448Y017459D01*
X004778Y017141D02*
X003738Y017141D01*
X003725Y017157D02*
X003657Y017225D01*
X003580Y017282D01*
X003494Y017325D01*
X003403Y017355D01*
X003308Y017370D01*
X003260Y017370D01*
X003260Y016760D01*
X003870Y016760D01*
X003870Y016808D01*
X003855Y016903D01*
X003825Y016994D01*
X003782Y017080D01*
X003725Y017157D01*
X003260Y017141D02*
X003260Y017141D01*
X003260Y017370D02*
X003212Y017370D01*
X003117Y017355D01*
X003026Y017325D01*
X002940Y017282D01*
X002863Y017225D01*
X002795Y017157D01*
X002738Y017080D01*
X002695Y016994D01*
X002665Y016903D01*
X002650Y016808D01*
X002650Y016760D01*
X003260Y016760D01*
X003260Y016760D01*
X003260Y016760D01*
X003870Y016760D01*
X003870Y016712D01*
X003855Y016617D01*
X003825Y016526D01*
X003782Y016440D01*
X003725Y016363D01*
X003657Y016295D01*
X003580Y016238D01*
X003494Y016195D01*
X003403Y016165D01*
X003308Y016150D01*
X003260Y016150D01*
X003260Y016760D01*
X003260Y016760D01*
X003260Y016760D01*
X003260Y017370D01*
X002782Y017141D02*
X000820Y017141D01*
X000820Y016822D02*
X002652Y016822D01*
X002650Y016760D02*
X002650Y016712D01*
X002665Y016617D01*
X002695Y016526D01*
X002738Y016440D01*
X002795Y016363D01*
X002863Y016295D01*
X002940Y016238D01*
X003026Y016195D01*
X003117Y016165D01*
X003212Y016150D01*
X003260Y016150D01*
X003260Y016760D01*
X002650Y016760D01*
X002706Y016504D02*
X000820Y016504D01*
X000820Y016185D02*
X003056Y016185D01*
X003260Y016185D02*
X003260Y016185D01*
X003464Y016185D02*
X005054Y016185D01*
X005466Y016185D02*
X008895Y016185D01*
X008895Y015867D02*
X000820Y015867D01*
X000820Y015548D02*
X004134Y015548D01*
X004386Y015548D02*
X008895Y015548D01*
X008895Y015230D02*
X004800Y015230D01*
X004870Y014911D02*
X008895Y014911D01*
X008895Y014593D02*
X008514Y014593D01*
X008782Y014274D02*
X008895Y014274D01*
X008895Y013956D02*
X008782Y013956D01*
X008895Y013637D02*
X008525Y013637D01*
X008895Y013319D02*
X008065Y013319D01*
X007747Y013000D02*
X008895Y013000D01*
X008895Y012682D02*
X007428Y012682D01*
X007110Y012363D02*
X008895Y012363D01*
X008695Y012045D02*
X004764Y012045D01*
X004446Y011726D02*
X008376Y011726D01*
X008058Y011408D02*
X006179Y011408D01*
X006193Y011397D02*
X006115Y011453D01*
X006030Y011497D01*
X005939Y011527D01*
X005844Y011542D01*
X005796Y011542D01*
X005796Y010932D01*
X005796Y010932D01*
X006406Y010932D01*
X006406Y010980D01*
X006391Y011074D01*
X006361Y011166D01*
X006317Y011251D01*
X006261Y011329D01*
X006193Y011397D01*
X006386Y011089D02*
X007739Y011089D01*
X007421Y010771D02*
X006385Y010771D01*
X006391Y010789D02*
X006406Y010884D01*
X006406Y010932D01*
X005796Y010932D01*
X005796Y010932D01*
X005796Y011542D01*
X005748Y011542D01*
X005653Y011527D01*
X005562Y011497D01*
X005476Y011453D01*
X005398Y011397D01*
X005330Y011329D01*
X005274Y011251D01*
X005230Y011166D01*
X005201Y011074D01*
X005186Y010980D01*
X005186Y010932D01*
X005796Y010932D01*
X005796Y010932D01*
X005796Y010322D01*
X005844Y010322D01*
X005939Y010337D01*
X006030Y010366D01*
X006115Y010410D01*
X006193Y010466D01*
X006261Y010534D01*
X006317Y010612D01*
X006361Y010697D01*
X006391Y010789D01*
X006173Y010452D02*
X007102Y010452D01*
X006784Y010134D02*
X004444Y010134D01*
X004444Y009815D02*
X006542Y009815D01*
X006953Y009709D02*
X006953Y006559D01*
X006305Y005911D01*
X006305Y004384D01*
X006805Y004940D02*
X006780Y005001D01*
X006725Y005056D01*
X006725Y005737D01*
X007309Y006321D01*
X007373Y006476D01*
X007373Y009535D01*
X009671Y011833D01*
X009735Y011987D01*
X009735Y016228D01*
X011064Y017557D01*
X012407Y017557D01*
X012524Y017440D01*
X012524Y017282D01*
X012297Y017188D01*
X012120Y017011D01*
X012024Y016779D01*
X012024Y016618D01*
X011916Y016510D01*
X011798Y016392D01*
X011734Y016237D01*
X011734Y014331D01*
X011634Y014231D01*
X011634Y013801D01*
X011651Y013783D01*
X011651Y011987D01*
X011715Y011833D01*
X011833Y011715D01*
X012891Y010658D01*
X012891Y010245D01*
X012850Y010204D01*
X012761Y009988D01*
X012761Y009753D01*
X012850Y009536D01*
X013016Y009370D01*
X013233Y009280D01*
X013468Y009280D01*
X013685Y009370D01*
X013851Y009536D01*
X013941Y009753D01*
X013941Y009988D01*
X013851Y010204D01*
X013811Y010245D01*
X013811Y010404D01*
X015017Y011611D01*
X023298Y011611D01*
X023816Y011093D01*
X023816Y007537D01*
X023098Y006820D01*
X023028Y006651D01*
X023028Y005175D01*
X020936Y003082D01*
X013443Y003082D01*
X012769Y003756D01*
X012780Y003766D01*
X012806Y003830D01*
X012826Y003790D01*
X012878Y003719D01*
X012940Y003657D01*
X013011Y003605D01*
X013090Y003565D01*
X013174Y003537D01*
X013261Y003524D01*
X013305Y003524D01*
X013349Y003524D01*
X013436Y003537D01*
X013520Y003565D01*
X013598Y003605D01*
X013670Y003657D01*
X013732Y003719D01*
X013784Y003790D01*
X013824Y003869D01*
X013851Y003953D01*
X013865Y004040D01*
X013865Y004384D01*
X013865Y004728D01*
X013851Y004815D01*
X013824Y004899D01*
X013784Y004977D01*
X013732Y005049D01*
X013670Y005111D01*
X013598Y005163D01*
X013520Y005203D01*
X013436Y005230D01*
X013349Y005244D01*
X013305Y005244D01*
X013305Y004384D01*
X013305Y004384D01*
X013865Y004384D01*
X013305Y004384D01*
X013305Y004384D01*
X013305Y005244D01*
X013261Y005244D01*
X013174Y005230D01*
X013090Y005203D01*
X013011Y005163D01*
X012940Y005111D01*
X012878Y005049D01*
X012826Y004977D01*
X012806Y004938D01*
X012780Y005001D01*
X012622Y005158D01*
X012416Y005244D01*
X012193Y005244D01*
X012097Y005204D01*
X012639Y005746D01*
X020920Y005746D01*
X021356Y005484D01*
X021356Y005448D01*
X021456Y005205D01*
X021642Y005019D01*
X021885Y004919D01*
X022147Y004919D01*
X022390Y005019D01*
X022575Y005205D01*
X022676Y005448D01*
X022676Y005710D01*
X022575Y005953D01*
X022390Y006138D01*
X022147Y006239D01*
X021885Y006239D01*
X021794Y006201D01*
X021296Y006499D01*
X021274Y006522D01*
X021225Y006542D01*
X021180Y006569D01*
X021148Y006573D01*
X021119Y006586D01*
X021066Y006586D01*
X021014Y006593D01*
X020984Y006586D01*
X018187Y006586D01*
X018214Y006597D01*
X019332Y007714D01*
X020828Y007714D01*
X020982Y007778D01*
X023173Y009968D01*
X023314Y009968D01*
X023619Y010273D01*
X023619Y010704D01*
X023314Y011008D01*
X022883Y011008D01*
X022579Y010704D01*
X022579Y010562D01*
X020570Y008554D01*
X019955Y008554D01*
X019982Y008565D01*
X021385Y009968D01*
X021527Y009968D01*
X021831Y010273D01*
X021831Y010704D01*
X021527Y011008D01*
X021096Y011008D01*
X020791Y010704D01*
X020791Y010562D01*
X019570Y009341D01*
X018680Y009341D01*
X018526Y009277D01*
X018408Y009159D01*
X017409Y008160D01*
X017006Y008160D01*
X017033Y008172D01*
X018544Y009683D01*
X019221Y009683D01*
X019376Y009746D01*
X019598Y009968D01*
X019739Y009968D01*
X020044Y010273D01*
X020044Y010704D01*
X019739Y011008D01*
X019308Y011008D01*
X019004Y010704D01*
X019004Y010562D01*
X018964Y010523D01*
X018287Y010523D01*
X018132Y010459D01*
X018014Y010340D01*
X016621Y008948D01*
X011722Y008948D01*
X012055Y009280D01*
X012168Y009280D01*
X012385Y009370D01*
X012551Y009536D01*
X012641Y009753D01*
X012641Y009988D01*
X012551Y010204D01*
X012385Y010370D01*
X012168Y010460D01*
X011933Y010460D01*
X011716Y010370D01*
X011550Y010204D01*
X011461Y009988D01*
X011461Y009874D01*
X010020Y008434D01*
X009651Y008434D01*
X009346Y008129D01*
X009346Y007988D01*
X007067Y005708D01*
X006949Y005590D01*
X006885Y005436D01*
X006885Y005056D01*
X006830Y005001D01*
X006805Y004940D01*
X006743Y005038D02*
X006867Y005038D01*
X006885Y005356D02*
X006725Y005356D01*
X006725Y005675D02*
X007033Y005675D01*
X007305Y005352D02*
X007305Y004384D01*
X007777Y003764D02*
X007833Y003764D01*
X008305Y004384D02*
X008305Y005155D01*
X011677Y008528D01*
X016795Y008528D01*
X018370Y010103D01*
X019138Y010103D01*
X019524Y010488D01*
X019071Y010771D02*
X014177Y010771D01*
X013858Y010452D02*
X018126Y010452D01*
X017807Y010134D02*
X013880Y010134D01*
X013941Y009815D02*
X017489Y009815D01*
X017170Y009497D02*
X013811Y009497D01*
X013351Y009870D02*
X013351Y010791D01*
X012071Y012071D01*
X012071Y013933D01*
X012154Y014016D01*
X013229Y014016D01*
X013211Y014593D02*
X012574Y014593D01*
X012574Y014911D02*
X013530Y014911D01*
X013848Y015230D02*
X012574Y015230D01*
X012574Y015548D02*
X014167Y015548D01*
X014485Y015867D02*
X012574Y015867D01*
X013076Y016185D02*
X013231Y016185D01*
X013654Y016185D02*
X013654Y016185D01*
X013654Y016024D02*
X013654Y016654D01*
X014284Y016654D01*
X013654Y016654D01*
X013654Y016654D01*
X013654Y016654D01*
X013654Y016024D01*
X014076Y016185D02*
X014804Y016185D01*
X015122Y016504D02*
X014267Y016504D01*
X014261Y016822D02*
X015194Y016822D01*
X015194Y017141D02*
X014055Y017141D01*
X013784Y017459D02*
X015144Y017459D01*
X014826Y017778D02*
X013671Y017778D01*
X013154Y017404D02*
X012581Y017977D01*
X010890Y017977D01*
X009315Y016402D01*
X009315Y012071D01*
X006953Y009709D01*
X006533Y009497D02*
X004444Y009497D01*
X004444Y009178D02*
X006533Y009178D01*
X006193Y008838D02*
X006115Y008894D01*
X006030Y008938D01*
X005939Y008968D01*
X005844Y008983D01*
X005796Y008983D01*
X005796Y008373D01*
X005796Y008373D01*
X006406Y008373D01*
X006406Y008421D01*
X006391Y008515D01*
X006361Y008607D01*
X006317Y008692D01*
X006261Y008770D01*
X006193Y008838D01*
X006163Y008860D02*
X006533Y008860D01*
X006533Y008541D02*
X006382Y008541D01*
X006406Y008373D02*
X005796Y008373D01*
X005796Y008373D01*
X005796Y008983D01*
X005748Y008983D01*
X005653Y008968D01*
X005562Y008938D01*
X005476Y008894D01*
X005398Y008838D01*
X005330Y008770D01*
X005274Y008692D01*
X005230Y008607D01*
X005201Y008515D01*
X005186Y008421D01*
X005186Y008373D01*
X005796Y008373D01*
X005796Y008373D01*
X005796Y007763D01*
X005844Y007763D01*
X005939Y007778D01*
X006030Y007807D01*
X006115Y007851D01*
X006193Y007907D01*
X006261Y007975D01*
X006317Y008053D01*
X006361Y008138D01*
X006391Y008230D01*
X006406Y008325D01*
X006406Y008373D01*
X006388Y008223D02*
X006533Y008223D01*
X006533Y007904D02*
X006189Y007904D01*
X005796Y007904D02*
X005796Y007904D01*
X005796Y007763D02*
X005796Y008373D01*
X005796Y008373D01*
X005186Y008373D01*
X005186Y008325D01*
X005201Y008230D01*
X005230Y008138D01*
X005274Y008053D01*
X005330Y007975D01*
X005398Y007907D01*
X005476Y007851D01*
X005562Y007807D01*
X005653Y007778D01*
X005748Y007763D01*
X005796Y007763D01*
X005403Y007904D02*
X004444Y007904D01*
X004444Y007586D02*
X006533Y007586D01*
X006533Y007267D02*
X004444Y007267D01*
X004444Y006949D02*
X006533Y006949D01*
X006430Y006630D02*
X004444Y006630D01*
X004444Y006312D02*
X006111Y006312D01*
X005885Y005993D02*
X004444Y005993D01*
X004444Y005675D02*
X005885Y005675D01*
X005885Y005356D02*
X004444Y005356D01*
X004743Y005038D02*
X004867Y005038D01*
X005743Y005038D02*
X005867Y005038D01*
X005305Y004384D02*
X005305Y003336D01*
X004591Y002622D01*
X003016Y002622D01*
X002622Y003016D01*
X002622Y013302D01*
X004260Y014940D01*
X003720Y015230D02*
X000820Y015230D01*
X000820Y014911D02*
X003637Y014911D01*
X003319Y014593D02*
X000820Y014593D01*
X000820Y014274D02*
X003000Y014274D01*
X002682Y013956D02*
X000820Y013956D01*
X000820Y013637D02*
X002363Y013637D01*
X002384Y013658D02*
X002384Y013658D01*
X002202Y013319D02*
X000820Y013319D01*
X000820Y013000D02*
X002202Y013000D01*
X002202Y012682D02*
X000820Y012682D01*
X000820Y012363D02*
X002202Y012363D01*
X002202Y012045D02*
X000820Y012045D01*
X000820Y011726D02*
X002202Y011726D01*
X002202Y011408D02*
X000820Y011408D01*
X000820Y011089D02*
X002202Y011089D01*
X002202Y010771D02*
X000820Y010771D01*
X000820Y010452D02*
X002202Y010452D01*
X002202Y010134D02*
X000820Y010134D01*
X000820Y009815D02*
X002202Y009815D01*
X002202Y009497D02*
X000820Y009497D01*
X000820Y009178D02*
X002202Y009178D01*
X002202Y008860D02*
X000820Y008860D01*
X000820Y008541D02*
X002202Y008541D01*
X002202Y008223D02*
X000820Y008223D01*
X000820Y007904D02*
X002202Y007904D01*
X002202Y007586D02*
X000820Y007586D01*
X000820Y007267D02*
X002202Y007267D01*
X002202Y006949D02*
X000820Y006949D01*
X000820Y006630D02*
X002202Y006630D01*
X002202Y006312D02*
X000820Y006312D01*
X000820Y005993D02*
X002202Y005993D01*
X002202Y005675D02*
X000820Y005675D01*
X000820Y005356D02*
X002202Y005356D01*
X002202Y005038D02*
X000820Y005038D01*
X000820Y004719D02*
X002202Y004719D01*
X002202Y004401D02*
X000820Y004401D01*
X000820Y004082D02*
X002202Y004082D01*
X002202Y003764D02*
X000820Y003764D01*
X000820Y003445D02*
X002202Y003445D01*
X002202Y003127D02*
X000820Y003127D01*
X000820Y002808D02*
X002254Y002808D01*
X002555Y002490D02*
X000820Y002490D01*
X002032Y002171D02*
X013139Y002171D01*
X012734Y002490D02*
X005052Y002490D01*
X005370Y002808D02*
X012416Y002808D01*
X012097Y003127D02*
X005673Y003127D01*
X005725Y003445D02*
X011858Y003445D01*
X011833Y003764D02*
X011777Y003764D01*
X011305Y004384D02*
X011305Y005006D01*
X012465Y006166D01*
X021036Y006166D01*
X022016Y005579D01*
X022638Y005356D02*
X023028Y005356D01*
X023028Y005675D02*
X022676Y005675D01*
X022535Y005993D02*
X023028Y005993D01*
X023028Y006312D02*
X021610Y006312D01*
X021038Y005675D02*
X012568Y005675D01*
X012249Y005356D02*
X021394Y005356D01*
X021624Y005038D02*
X013740Y005038D01*
X013865Y004719D02*
X022572Y004719D01*
X022408Y005038D02*
X022891Y005038D01*
X022254Y004401D02*
X013865Y004401D01*
X013865Y004082D02*
X021935Y004082D01*
X021617Y003764D02*
X013764Y003764D01*
X013305Y003764D02*
X013305Y003764D01*
X013305Y003524D02*
X013305Y004384D01*
X013305Y004384D01*
X013305Y003524D01*
X013080Y003445D02*
X021298Y003445D01*
X020980Y003127D02*
X013398Y003127D01*
X012845Y003764D02*
X012777Y003764D01*
X013305Y004082D02*
X013305Y004082D01*
X013305Y004401D02*
X013305Y004401D01*
X013305Y004719D02*
X013305Y004719D01*
X013305Y005038D02*
X013305Y005038D01*
X012870Y005038D02*
X012743Y005038D01*
X010833Y003764D02*
X010777Y003764D01*
X010305Y004384D02*
X010305Y005187D01*
X012071Y006953D01*
X017977Y006953D01*
X019158Y008134D01*
X020744Y008134D01*
X023099Y010488D01*
X023619Y010452D02*
X023816Y010452D01*
X023816Y010771D02*
X023552Y010771D01*
X023816Y011089D02*
X014495Y011089D01*
X014814Y011408D02*
X023501Y011408D01*
X022645Y010771D02*
X021764Y010771D01*
X021831Y010452D02*
X022468Y010452D01*
X022150Y010134D02*
X021692Y010134D01*
X021831Y009815D02*
X021232Y009815D01*
X021513Y009497D02*
X020913Y009497D01*
X021194Y009178D02*
X020595Y009178D01*
X020876Y008860D02*
X020276Y008860D01*
X019744Y008921D02*
X021311Y010488D01*
X020858Y010771D02*
X019977Y010771D01*
X020044Y010452D02*
X020681Y010452D01*
X020362Y010134D02*
X019904Y010134D01*
X020044Y009815D02*
X019444Y009815D01*
X019725Y009497D02*
X018358Y009497D01*
X018427Y009178D02*
X018040Y009178D01*
X018108Y008860D02*
X017721Y008860D01*
X017790Y008541D02*
X017403Y008541D01*
X017471Y008223D02*
X017084Y008223D01*
X017583Y007740D02*
X018764Y008921D01*
X019744Y008921D01*
X021108Y007904D02*
X023816Y007904D01*
X023816Y007586D02*
X019203Y007586D01*
X018885Y007267D02*
X023546Y007267D01*
X023227Y006949D02*
X018566Y006949D01*
X018248Y006630D02*
X023028Y006630D01*
X023816Y008223D02*
X021427Y008223D01*
X021745Y008541D02*
X023816Y008541D01*
X023816Y008860D02*
X022064Y008860D01*
X022382Y009178D02*
X023816Y009178D01*
X023816Y009497D02*
X022701Y009497D01*
X023019Y009815D02*
X023816Y009815D01*
X023816Y010134D02*
X023479Y010134D01*
X019004Y013319D02*
X012491Y013319D01*
X012154Y014016D02*
X012154Y016154D01*
X012654Y016654D01*
X012250Y017141D02*
X010648Y017141D01*
X010966Y017459D02*
X012504Y017459D01*
X012042Y016822D02*
X010329Y016822D01*
X010011Y016504D02*
X011910Y016504D01*
X011734Y016185D02*
X009735Y016185D01*
X009735Y015867D02*
X011734Y015867D01*
X011734Y015548D02*
X009735Y015548D01*
X009735Y015230D02*
X011734Y015230D01*
X011734Y014911D02*
X009735Y014911D01*
X009735Y014593D02*
X011734Y014593D01*
X011676Y014274D02*
X009735Y014274D01*
X009735Y013956D02*
X011634Y013956D01*
X011651Y013637D02*
X009735Y013637D01*
X009735Y013319D02*
X011651Y013319D01*
X011651Y013000D02*
X009735Y013000D01*
X009735Y012682D02*
X011651Y012682D01*
X011651Y012363D02*
X009735Y012363D01*
X009735Y012045D02*
X011651Y012045D01*
X011822Y011726D02*
X009564Y011726D01*
X009651Y011434D02*
X009346Y011129D01*
X009346Y010914D01*
X009866Y010914D01*
X009866Y011434D01*
X009651Y011434D01*
X009625Y011408D02*
X009246Y011408D01*
X009346Y011089D02*
X008927Y011089D01*
X008609Y010771D02*
X009346Y010771D01*
X009346Y010698D02*
X009651Y010394D01*
X009866Y010394D01*
X009866Y010914D01*
X009866Y010914D01*
X009866Y010914D01*
X009866Y011434D01*
X010082Y011434D01*
X010386Y011129D01*
X010386Y010914D01*
X009866Y010914D01*
X009346Y010914D01*
X009346Y010698D01*
X009592Y010452D02*
X008290Y010452D01*
X007972Y010134D02*
X011521Y010134D01*
X011401Y009815D02*
X007653Y009815D01*
X007373Y009497D02*
X011083Y009497D01*
X010764Y009178D02*
X007373Y009178D01*
X007373Y008860D02*
X010446Y008860D01*
X010127Y008541D02*
X007373Y008541D01*
X007373Y008223D02*
X009440Y008223D01*
X009263Y007904D02*
X007373Y007904D01*
X007373Y007586D02*
X008944Y007586D01*
X008626Y007267D02*
X007373Y007267D01*
X007373Y006949D02*
X008307Y006949D01*
X007989Y006630D02*
X007373Y006630D01*
X007299Y006312D02*
X007670Y006312D01*
X007352Y005993D02*
X006981Y005993D01*
X007305Y005352D02*
X009866Y007914D01*
X010094Y007914D01*
X012051Y009870D01*
X012580Y010134D02*
X012821Y010134D01*
X012761Y009815D02*
X012641Y009815D01*
X012511Y009497D02*
X012890Y009497D01*
X011952Y009178D02*
X016852Y009178D01*
X017583Y007740D02*
X012071Y007740D01*
X009305Y004974D01*
X009305Y004384D01*
X009777Y003764D02*
X009833Y003764D01*
X008833Y003764D02*
X008777Y003764D01*
X006833Y003764D02*
X006777Y003764D01*
X005833Y003764D02*
X005777Y003764D01*
X004833Y003764D02*
X004777Y003764D01*
X004820Y003445D02*
X003042Y003445D01*
X003042Y003764D02*
X003833Y003764D01*
X003745Y004082D02*
X003042Y004082D01*
X003042Y004401D02*
X003694Y004401D01*
X003604Y004719D02*
X003042Y004719D01*
X003042Y005038D02*
X003604Y005038D01*
X004024Y004664D02*
X004024Y008373D01*
X004024Y010932D01*
X004024Y011898D01*
X004591Y012465D01*
X006617Y012465D01*
X008262Y014109D01*
X007742Y014274D02*
X004188Y014274D01*
X004775Y014593D02*
X008010Y014593D01*
X007514Y013956D02*
X003869Y013956D01*
X003551Y013637D02*
X007196Y013637D01*
X006877Y013319D02*
X003232Y013319D01*
X003042Y013000D02*
X006559Y013000D01*
X005796Y011408D02*
X005796Y011408D01*
X005796Y011089D02*
X005796Y011089D01*
X005796Y010932D02*
X005186Y010932D01*
X005186Y010884D01*
X005201Y010789D01*
X005230Y010697D01*
X005274Y010612D01*
X005330Y010534D01*
X005398Y010466D01*
X005476Y010410D01*
X005562Y010366D01*
X005653Y010337D01*
X005748Y010322D01*
X005796Y010322D01*
X005796Y010932D01*
X005796Y010932D01*
X005796Y010771D02*
X005796Y010771D01*
X005796Y010452D02*
X005796Y010452D01*
X005418Y010452D02*
X004444Y010452D01*
X004618Y010771D02*
X005207Y010771D01*
X005205Y011089D02*
X004619Y011089D01*
X004444Y011408D02*
X005413Y011408D01*
X003895Y012363D02*
X003042Y012363D01*
X003042Y012045D02*
X003630Y012045D01*
X003604Y011726D02*
X003042Y011726D01*
X003042Y011408D02*
X003604Y011408D01*
X003429Y011089D02*
X003042Y011089D01*
X003042Y010771D02*
X003431Y010771D01*
X003604Y010452D02*
X003042Y010452D01*
X003042Y010134D02*
X003604Y010134D01*
X003604Y009815D02*
X003042Y009815D01*
X003042Y009497D02*
X003604Y009497D01*
X003604Y009178D02*
X003042Y009178D01*
X003042Y008860D02*
X003604Y008860D01*
X003434Y008541D02*
X003042Y008541D01*
X003042Y008223D02*
X003426Y008223D01*
X003604Y007904D02*
X003042Y007904D01*
X003042Y007586D02*
X003604Y007586D01*
X003604Y007267D02*
X003042Y007267D01*
X003042Y006949D02*
X003604Y006949D01*
X003604Y006630D02*
X003042Y006630D01*
X003042Y006312D02*
X003604Y006312D01*
X003604Y005993D02*
X003042Y005993D01*
X003042Y005675D02*
X003604Y005675D01*
X003604Y005356D02*
X003042Y005356D01*
X004024Y004664D02*
X004305Y004384D01*
X004501Y003127D02*
X003106Y003127D01*
X002660Y002384D02*
X002660Y002384D01*
X002395Y000897D02*
X029633Y000897D01*
X029106Y009178D02*
X029106Y009178D01*
X029106Y009497D02*
X029106Y009497D01*
X019104Y013956D02*
X014674Y013956D01*
X014154Y013956D02*
X014154Y013956D01*
X014631Y014274D02*
X019104Y014274D01*
X019104Y014593D02*
X014399Y014593D01*
X014718Y014911D02*
X019104Y014911D01*
X019104Y015230D02*
X015036Y015230D01*
X015355Y015548D02*
X019104Y015548D01*
X019104Y015867D02*
X015673Y015867D01*
X015979Y016185D02*
X019104Y016185D01*
X020183Y018415D02*
X015377Y018415D01*
X015058Y018733D02*
X020511Y018733D01*
X022686Y017141D02*
X023730Y017141D01*
X024508Y019052D02*
X014740Y019052D01*
X014421Y019370D02*
X024508Y019370D01*
X024596Y019689D02*
X000820Y019689D01*
X000820Y019370D02*
X009929Y019370D01*
X013055Y018096D02*
X014507Y018096D01*
X013654Y016504D02*
X013654Y016504D01*
X014468Y012363D02*
X012491Y012363D01*
X012692Y012045D02*
X014150Y012045D01*
X013831Y011726D02*
X013010Y011726D01*
X013329Y011408D02*
X013513Y011408D01*
X012778Y010771D02*
X010386Y010771D01*
X010386Y010698D02*
X010386Y010914D01*
X009866Y010914D01*
X009866Y010914D01*
X009866Y010914D01*
X009866Y010394D01*
X010082Y010394D01*
X010386Y010698D01*
X010140Y010452D02*
X011913Y010452D01*
X012188Y010452D02*
X012891Y010452D01*
X012459Y011089D02*
X010386Y011089D01*
X010108Y011408D02*
X012141Y011408D01*
X009866Y011408D02*
X009866Y011408D01*
X009866Y011089D02*
X009866Y011089D01*
X009866Y010771D02*
X009866Y010771D01*
X009866Y010452D02*
X009866Y010452D01*
X005796Y008860D02*
X005796Y008860D01*
X005796Y008541D02*
X005796Y008541D01*
X005796Y008223D02*
X005796Y008223D01*
X005203Y008223D02*
X004622Y008223D01*
X004615Y008541D02*
X005209Y008541D01*
X005428Y008860D02*
X004444Y008860D01*
X004214Y012682D02*
X003042Y012682D01*
X003260Y016504D02*
X003260Y016504D01*
X003260Y016822D02*
X003260Y016822D01*
X003814Y016504D02*
X004706Y016504D01*
X004650Y016822D02*
X003868Y016822D01*
X002036Y020007D02*
X029980Y020007D01*
X029722Y020326D02*
X002295Y020326D01*
X002420Y020644D02*
X029596Y020644D01*
X029566Y020963D02*
X002450Y020963D01*
X002393Y021281D02*
X029623Y021281D01*
X031196Y019689D02*
X027223Y019689D01*
X027311Y019370D02*
X031196Y019370D01*
X031196Y019052D02*
X027311Y019052D01*
X027295Y018733D02*
X031196Y018733D01*
D20*
X024276Y011284D02*
X023488Y012071D01*
X014827Y012071D01*
X013351Y010595D01*
X013351Y009870D01*
X012305Y004384D02*
X012305Y003570D01*
X013252Y002622D01*
X021126Y002622D01*
X023488Y004984D01*
X023488Y006559D01*
X024276Y007347D01*
X024276Y011284D01*
D21*
X023016Y008725D03*
X030575Y005378D03*
X030575Y004197D03*
X030575Y003016D03*
X029000Y001441D03*
X027819Y001441D03*
X026638Y001441D03*
X014354Y003606D03*
X014354Y005181D03*
X009630Y002819D03*
X008055Y002819D03*
X006480Y002819D03*
X004984Y001047D03*
X003803Y001047D03*
X002622Y001047D03*
X001047Y002622D03*
X001047Y003803D03*
X001047Y004984D03*
X001047Y016795D03*
X001047Y017977D03*
X001047Y019158D03*
X003016Y020732D03*
X004197Y020732D03*
X005378Y020732D03*
X026638Y020732D03*
X027819Y020732D03*
X029000Y020732D03*
X030575Y019551D03*
X030575Y018370D03*
X030575Y017189D03*
M02*
